<svg width="102" height="38" viewBox="0 0 102 38" fill="none" xmlns="http://www.w3.org/2000/svg">
<path d="M42.6009 32.5286C43.0696 32.8441 43.6144 33.0015 44.1659 32.9807C45.0353 32.9807 45.7656 32.491 45.7656 31.3984C45.7656 29.8914 42.4966 29.703 42.4966 27.7063C42.4966 26.463 43.5399 25.6718 44.7571 25.6718C45.1048 25.6718 45.6613 25.7472 46.1481 25.9356L46.0438 26.6137C45.7308 26.4253 45.2439 26.35 44.7571 26.35C44.0268 26.35 43.2269 26.6891 43.2269 27.6686C43.2269 29.2133 46.4611 29.2133 46.4611 31.4737C46.4611 33.0184 45.2439 33.6589 44.1311 33.6589C43.4355 33.6589 42.9139 33.5082 42.5314 33.2821L42.6009 32.5286ZM51.2951 33.3198C50.843 33.5459 50.2518 33.6589 49.7997 33.6589C48.0608 33.6589 47.4349 32.3779 47.4349 30.6826C47.4349 28.9872 48.3043 27.744 49.6258 27.744C51.0864 27.744 51.7124 29.0249 51.7124 30.5319V30.9086H48.1304C48.1304 32.0765 48.7216 33.0561 49.8692 33.0561C50.3213 33.0561 50.9821 32.83 51.2951 32.6417V33.3198ZM50.9821 30.3058C50.9821 29.3263 50.6343 28.3467 49.6606 28.3467C48.7216 28.3467 48.1304 29.364 48.1304 30.3058H50.9821ZM56.3029 28.6481C55.9551 28.4598 55.5378 28.3467 55.19 28.3467C53.9381 28.3467 53.2078 29.3263 53.2078 30.6826C53.2078 31.9635 53.9033 33.0561 55.1205 33.0561C55.503 33.0561 55.8856 32.9431 56.2681 32.7924L56.3377 33.4328C55.9128 33.5917 55.4655 33.6682 55.0162 33.6589C53.3469 33.6589 52.5122 32.2649 52.5122 30.6826C52.5122 28.9872 53.5555 27.744 55.0857 27.744C55.7117 27.744 56.129 27.8947 56.3377 27.97L56.3029 28.6481ZM61.4498 32.1896C61.4498 32.604 61.4498 33.0561 61.5194 33.5082H60.8934V32.491C60.65 33.0184 60.2674 33.6212 59.1894 33.6212C57.9026 33.6212 57.4505 32.717 57.4505 31.4737V27.8947H58.0765V31.2854C58.0765 32.3779 58.4243 33.0561 59.2937 33.0561C60.4761 33.0561 60.8239 31.9258 60.8239 30.984V27.8947H61.4846V32.1896H61.4498ZM63.0843 29.1379L63.0496 27.8947H63.6755V28.9872H63.7103C63.9538 28.3468 64.4058 27.744 65.0318 27.744L65.4839 27.8193V28.5728C65.3448 28.4975 65.1709 28.4974 65.0318 28.4974C63.9885 28.4974 63.7451 29.703 63.7451 30.7579V33.5082H63.0843V29.1379ZM67.1184 26.3877H66.4924V25.4458H67.1184V26.3877ZM66.4924 27.8947H67.1184V33.5459H66.4924V27.8947ZM70.9786 28.4974H69.7962V32.1142C69.7962 32.6417 69.9701 33.0561 70.4918 33.0561C70.7352 33.0561 70.9091 32.9807 71.083 32.9054L71.1177 33.5082C70.9786 33.5459 70.6656 33.6589 70.3527 33.6589C69.205 33.6589 69.1702 32.7924 69.1702 31.7751V28.4974H68.1269V27.8947H69.1702V26.5384L69.7962 26.2746V27.8947H70.9786V28.4974ZM72.787 26.3877H72.1263V25.4458H72.787V26.3877ZM72.1263 27.8947H72.787V33.5459H72.1263V27.8947ZM77.8644 33.3198C77.4123 33.5459 76.8211 33.6589 76.369 33.6589C74.6302 33.6589 74.0042 32.3779 74.0042 30.6826C74.0042 28.9872 74.8736 27.744 76.1951 27.744C77.6557 27.744 78.2817 29.0249 78.2817 30.5319V30.9086H74.6649C74.6649 32.0765 75.2562 33.0561 76.4038 33.0561C76.8559 33.0561 77.5166 32.83 77.8296 32.6417V33.3198H77.8644ZM77.5514 30.3058C77.5514 29.3263 77.2036 28.3467 76.2299 28.3467C75.2909 28.3467 74.6997 29.364 74.6997 30.3058H77.5514ZM79.0816 32.6793C79.4641 32.9054 79.951 33.0561 80.4379 33.0561C81.0638 33.0561 81.5855 32.6793 81.5855 32.0389C81.5855 30.7203 79.0816 30.9086 79.0816 29.2886C79.0816 28.1584 79.9162 27.7816 80.7856 27.7816C81.0638 27.7816 81.6203 27.8193 82.0724 28.0077L81.968 28.6481C81.6203 28.4974 81.1682 28.3844 80.8204 28.3844C80.1597 28.3844 79.7076 28.6105 79.7076 29.3263C79.7076 30.3812 82.2462 30.2305 82.2462 32.0765C82.2462 33.2821 81.203 33.6966 80.4379 33.6966C79.951 33.6966 79.4293 33.6212 78.9772 33.4328L79.0468 32.717L79.0816 32.6793Z" fill="#003974"/>
<path d="M60.3024 22.3565C64.1279 22.3565 67.0491 19.9453 67.0491 15.8011C67.0491 11.6569 64.1279 9.20801 60.3024 9.20801C56.477 9.20801 53.521 11.6192 53.521 15.8011C53.521 19.9453 56.4422 22.3565 60.3024 22.3565ZM60.3024 19.3425C58.4245 19.3425 57.6594 17.6471 57.6594 15.8011C57.6594 13.9173 58.4245 12.2597 60.3024 12.2597C62.1456 12.2597 62.9107 13.9173 62.9107 15.8011C62.9107 17.6848 62.1456 19.3425 60.3024 19.3425Z" fill="#ED1D24"/>
<path d="M66.6672 12.5231H68.9625V17.6469C68.9625 20.6609 69.8319 22.3562 73.4486 22.3562C74.4224 22.3562 75.1875 22.2432 75.9526 22.1302L75.8134 19.3046C75.4309 19.3799 74.9788 19.493 74.5963 19.493C73.3095 19.493 72.9965 18.7018 72.9965 17.1948V12.5231H75.7787V9.50918H72.9965V5.13892L69.032 6.6459V9.50918H66.6672V12.5231ZM89.8632 22.0925H93.8625V15.8385H93.8973L97.1315 22.0925H102L97.6184 15.2734L101.652 9.50918H97.2358L93.8973 14.7836H93.8625V5.13892L89.8632 6.6459V22.0925ZM42.8452 22.0925H46.8445V15.8385H46.9141L50.1135 22.0925H54.9823L50.6004 15.2734L54.6345 9.50918H50.2526L46.9141 14.7836H46.8445V5.13892L42.8452 6.60823V22.0548V22.0925ZM88.4374 22.1302C88.2287 21.1506 88.1939 20.1334 88.1939 19.1162V14.4446C88.1939 10.5264 85.5857 9.1701 82.6297 9.1701C80.8908 9.1701 79.3607 9.43383 77.9 10.0366L77.9696 13.0506C79.1236 12.3814 80.4168 12.0441 81.7255 12.0711C83.1861 12.0711 84.3685 12.5608 84.4033 14.2939C83.8816 14.1808 83.1513 14.1055 82.5253 14.1055C80.3344 14.1055 76.4394 14.5576 76.4394 18.4757C76.4394 21.226 78.526 22.4693 80.8561 22.4693C82.5253 22.4693 83.6382 21.7534 84.5772 20.2088C84.5772 20.8492 84.6815 21.4897 84.6815 22.1679H88.4374V22.1302ZM80.2301 18.099C80.2301 16.8934 81.3082 16.4036 82.6644 16.4036L84.4033 16.479C84.4033 17.986 83.4295 19.493 81.8994 19.493C80.9604 19.493 80.2301 19.0032 80.2301 18.099Z" fill="#ED1D24"/>
<path d="M0 19.1164C0 8.98188 8.79849 0.768799 19.6488 0.768799C30.5339 0.768799 39.3324 8.9442 39.3324 19.0787C39.3324 29.1755 30.5339 37.3886 19.6488 37.3886C8.79849 37.3886 0 29.1755 0 19.0787" fill="#003974"/>
<path d="M17.2847 6.72133L21.8056 5.10132V31.8503L17.2847 33.508V6.72133Z" fill="#ED1D24"/>
<path d="M34.4288 21C34.0115 24.8428 32.0292 28.6856 27.7169 28.6856C25.1783 28.6856 23.196 26.8019 21.8397 24.5414V21.9042C23.5785 22.8084 25.1435 23.7879 27.091 23.7879C29.4906 23.8633 31.6119 22.8837 32.5161 21H34.4288ZM19.9965 23.4112C17.9795 26.0107 16.0668 28.6479 12.4848 28.6479C7.4074 28.6479 5.00781 23.3358 5.00781 18.8525C5.00781 14.5953 6.88575 9.54688 11.824 9.54688C13.9802 9.54688 16.032 10.9785 17.284 12.4855V16.1023C16.2407 15.3488 13.9454 14.5953 12.4152 14.5953C9.28534 14.5199 6.50321 16.0269 6.57276 19.38C6.60754 21.6404 8.72891 23.2228 10.8155 23.2228C14.0497 23.2228 15.9972 20.0581 17.6317 17.6469L19.5444 14.859C21.3528 12.1088 23.4742 9.58455 27.0562 9.58455C31.2989 9.58455 33.6637 13.3143 34.3593 17.1195H32.4118C31.9946 16.4922 31.4462 15.9809 30.8115 15.6273C30.1768 15.2737 29.4739 15.0879 28.7602 15.0851C25.4217 15.0851 23.4394 18.4004 21.8049 20.8493L19.9618 23.3735" fill="white"/>
</svg>
