<svg width="60" height="60" viewBox="0 0 60 60" fill="none" xmlns="http://www.w3.org/2000/svg">
<g id="Phone Mobile/Filled">
<path id="&#240;&#159;&#142;&#168; Color" d="M39.375 5C42.4816 5 45 7.5184 45 10.625V49.375C45 52.4816 42.4816 55 39.375 55H20.625C17.5184 55 15 52.4816 15 49.375V10.625C15 7.5184 17.5184 5 20.625 5H39.375ZM33.125 45H26.875C25.8395 45 25 45.8395 25 46.875C25 47.9105 25.8395 48.75 26.875 48.75H33.125C34.1605 48.75 35 47.9105 35 46.875C35 45.8395 34.1605 45 33.125 45Z" fill="#9BDEF7"/>
</g>
</svg>
