<svg width="20" height="20" viewBox="0 0 20 20" fill="none" xmlns="http://www.w3.org/2000/svg">
<g id="left-icon-small">
<path id="&#240;&#159;&#142;&#168; Color" d="M4.24831 3.32737V6.19733C4.24831 6.64565 4.61174 7.00908 5.06006 7.00908H7.93002C8.37833 7.00908 8.74176 6.64565 8.74176 6.19733C8.74176 5.74902 8.37833 5.38559 7.93002 5.38559L7.26282 5.38475C9.44521 4.07934 12.3147 4.36662 14.1947 6.24657C16.4137 8.46562 16.4137 12.0634 14.1947 14.2825C11.9756 16.5015 8.37785 16.5015 6.1588 14.2825C4.80821 12.9319 4.24284 11.025 4.5976 9.18363C4.68241 8.74341 4.3943 8.31779 3.95408 8.23297C3.51386 8.14816 3.08824 8.43627 3.00342 8.87649C2.54779 11.2414 3.27519 13.6948 5.01081 15.4304C7.86388 18.2835 12.4896 18.2835 15.3427 15.4304C18.1957 12.5774 18.1957 7.95165 15.3427 5.09859C12.7615 2.51745 8.72953 2.27144 5.87183 4.36057L5.8718 3.32737C5.8718 2.87906 5.50837 2.51562 5.06006 2.51562C4.61174 2.51562 4.24831 2.87906 4.24831 3.32737Z" fill="#003366"/>
</g>
</svg>
