<svg width="130" height="36" viewBox="0 0 130 36" fill="none" xmlns="http://www.w3.org/2000/svg">
<path d="M12.2483 11.3274V14.1973C12.2483 14.6456 12.6117 15.0091 13.0601 15.0091H15.93C16.3783 15.0091 16.7418 14.6456 16.7418 14.1973C16.7418 13.749 16.3783 13.3856 15.93 13.3856L15.2628 13.3847C17.4452 12.0793 20.3147 12.3666 22.1947 14.2466C24.4137 16.4656 24.4137 20.0634 22.1947 22.2825C19.9756 24.5015 16.3779 24.5015 14.1588 22.2825C12.8082 20.9319 12.2429 19.025 12.5976 17.1836C12.6824 16.7434 12.3943 16.3178 11.9541 16.233C11.5139 16.1482 11.0882 16.4363 11.0034 16.8765C10.5478 19.2414 11.2752 21.6948 13.0108 23.4304C15.8639 26.2835 20.4896 26.2835 23.3427 23.4304C26.1957 20.5774 26.1957 15.9517 23.3427 13.0986C20.7615 10.5175 16.7295 10.2714 13.8718 12.3606L13.8718 11.3274C13.8718 10.8791 13.5084 10.5156 13.0601 10.5156C12.6117 10.5156 12.2483 10.8791 12.2483 11.3274Z" fill="#003366"/>
<path d="M33.3167 13.0469H36.8372C37.5937 13.0469 38.2386 13.1608 38.7718 13.3887C39.305 13.6165 39.7129 13.9538 39.9954 14.4004C40.2825 14.8424 40.4261 15.3893 40.4261 16.041C40.4261 16.5378 40.3349 16.9753 40.1527 17.3535C39.9704 17.7318 39.7129 18.0508 39.3802 18.3105C39.0475 18.5658 38.651 18.764 38.1907 18.9053L37.6712 19.1582H34.5062L34.4925 17.7979H36.8646C37.2747 17.7979 37.6165 17.7249 37.89 17.5791C38.1634 17.4333 38.3685 17.235 38.5052 16.9844C38.6465 16.7292 38.7171 16.4421 38.7171 16.123C38.7171 15.7767 38.6488 15.4759 38.512 15.2207C38.3799 14.9609 38.1748 14.7627 37.8968 14.626C37.6188 14.4847 37.2656 14.4141 36.8372 14.4141H35.0325V23H33.3167V13.0469ZM38.9974 23L36.6595 18.5293L38.4573 18.5225L40.8294 22.9111V23H38.9974ZM45.5118 23.1367C44.9649 23.1367 44.4704 23.0479 44.0284 22.8701C43.5909 22.6878 43.2172 22.4349 42.9073 22.1113C42.6019 21.7878 42.3672 21.4072 42.2032 20.9697C42.0391 20.5322 41.9571 20.0605 41.9571 19.5547V19.2812C41.9571 18.7025 42.0414 18.1784 42.21 17.709C42.3786 17.2396 42.6133 16.8385 42.9141 16.5059C43.2149 16.1686 43.5704 15.9111 43.9805 15.7334C44.3907 15.5557 44.835 15.4668 45.3135 15.4668C45.8422 15.4668 46.3047 15.5557 46.7012 15.7334C47.0977 15.9111 47.4258 16.1618 47.6856 16.4854C47.9499 16.8044 48.1459 17.1849 48.2735 17.627C48.4056 18.069 48.4717 18.5566 48.4717 19.0898V19.7939H42.7569V18.6113H46.8448V18.4814C46.8357 18.1852 46.7764 17.9072 46.667 17.6475C46.5622 17.3877 46.4004 17.1781 46.1817 17.0186C45.9629 16.859 45.6713 16.7793 45.3067 16.7793C45.0332 16.7793 44.7894 16.8385 44.5752 16.957C44.3656 17.071 44.1901 17.2373 44.0489 17.4561C43.9076 17.6748 43.7982 17.9391 43.7207 18.249C43.6478 18.5544 43.6114 18.8984 43.6114 19.2812V19.5547C43.6114 19.8783 43.6547 20.179 43.7413 20.457C43.8324 20.7305 43.9646 20.9697 44.1377 21.1748C44.3109 21.3799 44.5205 21.5417 44.7666 21.6602C45.0127 21.7741 45.293 21.8311 45.6075 21.8311C46.0039 21.8311 46.3571 21.7513 46.667 21.5918C46.9769 21.4323 47.2458 21.2067 47.4737 20.915L48.3418 21.7559C48.1823 21.9883 47.975 22.2116 47.7198 22.4258C47.4646 22.6354 47.1524 22.8063 46.7832 22.9385C46.4187 23.0706 45.9948 23.1367 45.5118 23.1367ZM53.3523 18.0918V19.4043H49.7361V18.0918H53.3523ZM58.4653 15.6035V16.8066H54.2954V15.6035H58.4653ZM55.4985 13.792H57.146V20.9561C57.146 21.1839 57.1779 21.3594 57.2417 21.4824C57.31 21.6009 57.4035 21.6807 57.522 21.7217C57.6404 21.7627 57.7794 21.7832 57.9389 21.7832C58.0529 21.7832 58.1623 21.7764 58.2671 21.7627C58.3719 21.749 58.4562 21.7354 58.52 21.7217L58.5268 22.9795C58.3901 23.0205 58.2306 23.057 58.0483 23.0889C57.8706 23.1208 57.6655 23.1367 57.4331 23.1367C57.0548 23.1367 56.7199 23.0706 56.4282 22.9385C56.1365 22.8018 55.9087 22.5807 55.7446 22.2754C55.5805 21.9701 55.4985 21.5645 55.4985 21.0586V13.792ZM64.1867 21.5166V17.9893C64.1867 17.7249 64.1389 17.4971 64.0432 17.3057C63.9475 17.1143 63.8016 16.9661 63.6057 16.8613C63.4143 16.7565 63.1727 16.7041 62.8811 16.7041C62.6122 16.7041 62.3798 16.7497 62.1838 16.8408C61.9878 16.932 61.8352 17.055 61.7258 17.21C61.6164 17.3649 61.5617 17.5404 61.5617 17.7363H59.9211C59.9211 17.4447 59.9917 17.1621 60.133 16.8887C60.2743 16.6152 60.4794 16.3714 60.7482 16.1572C61.0171 15.943 61.3384 15.7744 61.7121 15.6514C62.0858 15.5283 62.5051 15.4668 62.9699 15.4668C63.5259 15.4668 64.0181 15.5602 64.4465 15.7471C64.8794 15.9339 65.2189 16.2165 65.465 16.5947C65.7157 16.9684 65.841 17.4378 65.841 18.0029V21.291C65.841 21.6283 65.8638 21.9313 65.9094 22.2002C65.9595 22.4645 66.0301 22.6947 66.1213 22.8906V23H64.4328C64.3553 22.8223 64.2938 22.5967 64.2482 22.3232C64.2072 22.0452 64.1867 21.7764 64.1867 21.5166ZM64.426 18.502L64.4396 19.5205H63.257C62.9517 19.5205 62.6828 19.5501 62.4504 19.6094C62.218 19.6641 62.0243 19.7461 61.8693 19.8555C61.7144 19.9648 61.5982 20.097 61.5207 20.252C61.4432 20.4069 61.4045 20.5824 61.4045 20.7783C61.4045 20.9743 61.4501 21.1543 61.5412 21.3184C61.6324 21.4779 61.7645 21.6032 61.9377 21.6943C62.1154 21.7855 62.3296 21.8311 62.5803 21.8311C62.9175 21.8311 63.2115 21.7627 63.4621 21.626C63.7173 21.4847 63.9178 21.3138 64.0637 21.1133C64.2095 20.9082 64.287 20.7145 64.2961 20.5322L64.8293 21.2637C64.7746 21.4505 64.6812 21.651 64.549 21.8652C64.4169 22.0794 64.2437 22.2845 64.0295 22.4805C63.8199 22.6719 63.5669 22.8291 63.2707 22.9521C62.979 23.0752 62.6418 23.1367 62.259 23.1367C61.7759 23.1367 61.3452 23.041 60.967 22.8496C60.5887 22.6536 60.2925 22.3916 60.0783 22.0635C59.8641 21.7308 59.757 21.3548 59.757 20.9355C59.757 20.5436 59.8299 20.1973 59.9758 19.8965C60.1262 19.5911 60.3449 19.3359 60.632 19.1309C60.9237 18.9258 61.2792 18.7708 61.6984 18.666C62.1177 18.5566 62.5962 18.502 63.134 18.502H64.426ZM69.5048 12.5V23H67.8505V12.5H69.5048ZM74.0986 15.6035L70.8788 19.1719L69.1152 20.9766L68.6845 19.582L70.0175 17.9346L72.1093 15.6035H74.0986ZM72.4648 23L70.0654 19.5273L71.1044 18.3721L74.372 23H72.4648ZM78.5485 23.1367C78.0016 23.1367 77.5071 23.0479 77.0651 22.8701C76.6276 22.6878 76.2539 22.4349 75.944 22.1113C75.6386 21.7878 75.4039 21.4072 75.2399 20.9697C75.0758 20.5322 74.9938 20.0605 74.9938 19.5547V19.2812C74.9938 18.7025 75.0781 18.1784 75.2467 17.709C75.4153 17.2396 75.65 16.8385 75.9508 16.5059C76.2516 16.1686 76.6071 15.9111 77.0172 15.7334C77.4274 15.5557 77.8717 15.4668 78.3502 15.4668C78.8789 15.4668 79.3414 15.5557 79.7379 15.7334C80.1344 15.9111 80.4625 16.1618 80.7223 16.4854C80.9866 16.8044 81.1826 17.1849 81.3102 17.627C81.4424 18.069 81.5084 18.5566 81.5084 19.0898V19.7939H75.7936V18.6113H79.8815V18.4814C79.8724 18.1852 79.8131 17.9072 79.7038 17.6475C79.5989 17.3877 79.4371 17.1781 79.2184 17.0186C78.9996 16.859 78.708 16.7793 78.3434 16.7793C78.07 16.7793 77.8261 16.8385 77.612 16.957C77.4023 17.071 77.2269 17.2373 77.0856 17.4561C76.9443 17.6748 76.8349 17.9391 76.7575 18.249C76.6845 18.5544 76.6481 18.8984 76.6481 19.2812V19.5547C76.6481 19.8783 76.6914 20.179 76.778 20.457C76.8691 20.7305 77.0013 20.9697 77.1745 21.1748C77.3476 21.3799 77.5573 21.5417 77.8034 21.6602C78.0495 21.7741 78.3297 21.8311 78.6442 21.8311C79.0407 21.8311 79.3939 21.7513 79.7038 21.5918C80.0136 21.4323 80.2825 21.2067 80.5104 20.915L81.3786 21.7559C81.2191 21.9883 81.0117 22.2116 80.7565 22.4258C80.5013 22.6354 80.1891 22.8063 79.82 22.9385C79.4554 23.0706 79.0316 23.1367 78.5485 23.1367ZM90.9893 20.9971C90.9893 20.833 90.9483 20.6849 90.8663 20.5527C90.7843 20.416 90.627 20.293 90.3946 20.1836C90.1667 20.0742 89.8295 19.974 89.3829 19.8828C88.991 19.7962 88.6309 19.6937 88.3028 19.5752C87.9792 19.4521 87.7013 19.304 87.4688 19.1309C87.2364 18.9577 87.0564 18.7526 86.9288 18.5156C86.8012 18.2786 86.7374 18.0052 86.7374 17.6953C86.7374 17.3945 86.8035 17.1097 86.9356 16.8408C87.0678 16.5719 87.2569 16.335 87.503 16.1299C87.7491 15.9248 88.0476 15.763 88.3985 15.6445C88.754 15.526 89.1505 15.4668 89.588 15.4668C90.2078 15.4668 90.7387 15.5716 91.1807 15.7812C91.6274 15.9863 91.9692 16.2666 92.2061 16.6221C92.4431 16.973 92.5616 17.3695 92.5616 17.8115H90.9141C90.9141 17.6156 90.864 17.4333 90.7638 17.2646C90.668 17.0915 90.5222 16.9525 90.3263 16.8477C90.1303 16.7383 89.8842 16.6836 89.588 16.6836C89.3054 16.6836 89.0707 16.7292 88.8839 16.8203C88.7016 16.9069 88.5649 17.0208 88.4737 17.1621C88.3871 17.3034 88.3438 17.4583 88.3438 17.627C88.3438 17.75 88.3666 17.8617 88.4122 17.9619C88.4623 18.0576 88.5444 18.1465 88.6583 18.2285C88.7722 18.306 88.9272 18.3789 89.1231 18.4473C89.3236 18.5156 89.5743 18.5817 89.8751 18.6455C90.4402 18.764 90.9255 18.9167 91.3311 19.1035C91.7413 19.2858 92.0557 19.5228 92.2745 19.8145C92.4932 20.1016 92.6026 20.4661 92.6026 20.9082C92.6026 21.2363 92.532 21.5371 92.3907 21.8105C92.254 22.0794 92.0535 22.3141 91.7891 22.5146C91.5248 22.7106 91.2081 22.8633 90.8389 22.9727C90.4744 23.082 90.0642 23.1367 89.6085 23.1367C88.9386 23.1367 88.3712 23.0182 87.9063 22.7812C87.4415 22.5397 87.0883 22.2321 86.8468 21.8584C86.6098 21.4801 86.4913 21.0882 86.4913 20.6826H88.0841C88.1023 20.988 88.1866 21.2318 88.337 21.4141C88.4919 21.5918 88.6833 21.7217 88.9112 21.8037C89.1436 21.8812 89.3829 21.9199 89.629 21.9199C89.9252 21.9199 90.1736 21.8812 90.3741 21.8037C90.5746 21.7217 90.7273 21.6123 90.8321 21.4756C90.9369 21.3343 90.9893 21.1748 90.9893 20.9971ZM97.5857 23.1367C97.0389 23.1367 96.5444 23.0479 96.1023 22.8701C95.6648 22.6878 95.2911 22.4349 94.9813 22.1113C94.6759 21.7878 94.4412 21.4072 94.2771 20.9697C94.1131 20.5322 94.0311 20.0605 94.0311 19.5547V19.2812C94.0311 18.7025 94.1154 18.1784 94.284 17.709C94.4526 17.2396 94.6873 16.8385 94.9881 16.5059C95.2889 16.1686 95.6443 15.9111 96.0545 15.7334C96.4646 15.5557 96.909 15.4668 97.3875 15.4668C97.9161 15.4668 98.3787 15.5557 98.7752 15.7334C99.1717 15.9111 99.4998 16.1618 99.7596 16.4854C100.024 16.8044 100.22 17.1849 100.347 17.627C100.48 18.069 100.546 18.5566 100.546 19.0898V19.7939H94.8309V18.6113H98.9188V18.4814C98.9096 18.1852 98.8504 17.9072 98.741 17.6475C98.6362 17.3877 98.4744 17.1781 98.2557 17.0186C98.0369 16.859 97.7452 16.7793 97.3807 16.7793C97.1072 16.7793 96.8634 16.8385 96.6492 16.957C96.4396 17.071 96.2641 17.2373 96.1229 17.4561C95.9816 17.6748 95.8722 17.9391 95.7947 18.249C95.7218 18.5544 95.6854 18.8984 95.6854 19.2812V19.5547C95.6854 19.8783 95.7286 20.179 95.8152 20.457C95.9064 20.7305 96.0385 20.9697 96.2117 21.1748C96.3849 21.3799 96.5945 21.5417 96.8406 21.6602C97.0867 21.7741 97.367 21.8311 97.6814 21.8311C98.0779 21.8311 98.4311 21.7513 98.741 21.5918C99.0509 21.4323 99.3198 21.2067 99.5477 20.915L100.416 21.7559C100.256 21.9883 100.049 22.2116 99.7938 22.4258C99.5385 22.6354 99.2264 22.8063 98.8572 22.9385C98.4926 23.0706 98.0688 23.1367 97.5857 23.1367ZM103.875 12.5V23H102.22V12.5H103.875ZM108.188 23H106.54V14.8926C106.54 14.3411 106.643 13.8786 106.848 13.5049C107.058 13.1266 107.356 12.8418 107.743 12.6504C108.131 12.4544 108.589 12.3564 109.117 12.3564C109.281 12.3564 109.443 12.3678 109.603 12.3906C109.762 12.4089 109.917 12.4385 110.068 12.4795L110.027 13.751C109.935 13.7282 109.835 13.7122 109.726 13.7031C109.621 13.694 109.507 13.6895 109.384 13.6895C109.133 13.6895 108.917 13.7373 108.735 13.833C108.557 13.9242 108.42 14.0586 108.324 14.2363C108.233 14.4141 108.188 14.6328 108.188 14.8926V23ZM109.712 15.6035V16.8066H105.406V15.6035H109.712ZM112.952 15.6035V23H111.298V15.6035H112.952ZM111.188 13.6621C111.188 13.4115 111.27 13.2041 111.435 13.04C111.603 12.8714 111.836 12.7871 112.132 12.7871C112.423 12.7871 112.654 12.8714 112.822 13.04C112.991 13.2041 113.075 13.4115 113.075 13.6621C113.075 13.9082 112.991 14.1133 112.822 14.2773C112.654 14.4414 112.423 14.5234 112.132 14.5234C111.836 14.5234 111.603 14.4414 111.435 14.2773C111.27 14.1133 111.188 13.9082 111.188 13.6621ZM118.298 23.1367C117.751 23.1367 117.256 23.0479 116.814 22.8701C116.377 22.6878 116.003 22.4349 115.693 22.1113C115.388 21.7878 115.153 21.4072 114.989 20.9697C114.825 20.5322 114.743 20.0605 114.743 19.5547V19.2812C114.743 18.7025 114.827 18.1784 114.996 17.709C115.164 17.2396 115.399 16.8385 115.7 16.5059C116.001 16.1686 116.356 15.9111 116.766 15.7334C117.176 15.5557 117.621 15.4668 118.099 15.4668C118.628 15.4668 119.091 15.5557 119.487 15.7334C119.883 15.9111 120.212 16.1618 120.471 16.4854C120.736 16.8044 120.932 17.1849 121.059 17.627C121.191 18.069 121.257 18.5566 121.257 19.0898V19.7939H115.543V18.6113H119.631V18.4814C119.621 18.1852 119.562 17.9072 119.453 17.6475C119.348 17.3877 119.186 17.1781 118.967 17.0186C118.749 16.859 118.457 16.7793 118.092 16.7793C117.819 16.7793 117.575 16.8385 117.361 16.957C117.151 17.071 116.976 17.2373 116.835 17.4561C116.693 17.6748 116.584 17.9391 116.507 18.249C116.434 18.5544 116.397 18.8984 116.397 19.2812V19.5547C116.397 19.8783 116.44 20.179 116.527 20.457C116.618 20.7305 116.75 20.9697 116.924 21.1748C117.097 21.3799 117.306 21.5417 117.552 21.6602C117.799 21.7741 118.079 21.8311 118.393 21.8311C118.79 21.8311 119.143 21.7513 119.453 21.5918C119.763 21.4323 120.032 21.2067 120.259 20.915L121.128 21.7559C120.968 21.9883 120.761 22.2116 120.506 22.4258C120.25 22.6354 119.938 22.8063 119.569 22.9385C119.204 23.0706 118.781 23.1367 118.298 23.1367Z" fill="#0D4582"/>
</svg>
