<svg width="20" height="20" viewBox="0 0 20 20" fill="none" xmlns="http://www.w3.org/2000/svg">
<g id="left-icon-small">
<g id="Vector">
<path d="M3.95831 17.0874H15.2064C15.5516 17.0874 15.8314 17.3672 15.8314 17.7124C15.8314 18.0288 15.5962 18.2903 15.2912 18.3316L15.2064 18.3374H3.95831C3.61314 18.3374 3.33331 18.0575 3.33331 17.7124C3.33331 17.3959 3.56844 17.1344 3.8735 17.0931L3.95831 17.0874Z" fill="#0D4582"/>
<path d="M9.58331 15.8345L9.6805 15.8289C10.0949 15.7808 10.4166 15.4285 10.4166 15.0012V4.51367L13.1611 7.25383L13.2397 7.3231C13.5668 7.57706 14.0394 7.55363 14.3396 7.25302C14.6649 6.92736 14.6645 6.39973 14.3388 6.07451L10.1693 1.91067L10.0908 1.84143C9.76389 1.58758 9.29151 1.6108 8.99125 1.91101L4.82654 6.07485L4.75721 6.15335C4.50299 6.48023 4.52605 6.95293 4.82642 7.25336L4.90492 7.3227C5.2318 7.57692 5.7045 7.55386 6.00493 7.25349L8.74998 4.5095V15.0012L8.75559 15.0984C8.80372 15.5128 9.15595 15.8345 9.58331 15.8345Z" fill="#0D4582"/>
</g>
</g>
</svg>
