<svg width="80" height="80" viewBox="0 0 80 80" fill="none" xmlns="http://www.w3.org/2000/svg">
<rect x="0.5" y="0.5" width="79" height="79" rx="11.5" fill="white" stroke="#EEF3F6"/>
<rect width="24" height="24" transform="translate(28 28)" fill="white"/>
<path d="M32.75 48.5044H46.2477C46.6619 48.5044 46.9977 48.8402 46.9977 49.2544C46.9977 49.6341 46.7155 49.9479 46.3494 49.9976L46.2477 50.0044H32.75C32.3358 50.0044 32 49.6686 32 49.2544C32 48.8747 32.2822 48.5609 32.6482 48.5113L32.75 48.5044Z" fill="#0D4582"/>
<path d="M39.5 47.001L39.6166 46.9943C40.114 46.9365 40.5 46.5138 40.5 46.001V33.416L43.7934 36.7042L43.8876 36.7873C44.2801 37.0921 44.8474 37.064 45.2076 36.7032C45.5978 36.3124 45.5974 35.6793 45.2066 35.289L40.2032 30.2924L40.109 30.2093C39.7167 29.9047 39.1498 29.9326 38.7895 30.2928L33.7919 35.2894L33.7087 35.3836C33.4036 35.7759 33.4313 36.3431 33.7917 36.7036L33.8859 36.7868C34.2782 37.0919 34.8454 37.0642 35.2059 36.7038L38.5 33.411V46.001L38.5067 46.1176C38.5645 46.615 38.9872 47.001 39.5 47.001Z" fill="#0D4582"/>
</svg>
