<svg width="132" height="32" viewBox="0 0 132 32" fill="none" xmlns="http://www.w3.org/2000/svg">
<rect width="132" height="32" rx="12" fill="#0D4582"/>
<path d="M15.3545 11.0469H17.0634V17.6982C17.0634 18.4548 16.8994 19.0882 16.5713 19.5986C16.2431 20.109 15.7965 20.4941 15.2314 20.7539C14.6709 21.0091 14.0442 21.1367 13.3515 21.1367C12.636 21.1367 11.998 21.0091 11.4375 20.7539C10.8769 20.4941 10.4349 20.109 10.1113 19.5986C9.79228 19.0882 9.63277 18.4548 9.63277 17.6982V11.0469H11.3418V17.6982C11.3418 18.1768 11.4238 18.571 11.5879 18.8809C11.7519 19.1862 11.9843 19.4118 12.2851 19.5576C12.5859 19.7035 12.9414 19.7764 13.3515 19.7764C13.7617 19.7764 14.1149 19.7035 14.4111 19.5576C14.7119 19.4118 14.9443 19.1862 15.1084 18.8809C15.2724 18.571 15.3545 18.1768 15.3545 17.6982V11.0469ZM20.6999 15.0254V23.8438H19.0524V13.6035H20.57L20.6999 15.0254ZM25.5192 17.2334V17.377C25.5192 17.9147 25.4554 18.4137 25.3278 18.874C25.2048 19.3298 25.0202 19.7285 24.7741 20.0703C24.5326 20.4076 24.2341 20.6696 23.8786 20.8564C23.5231 21.0433 23.113 21.1367 22.6481 21.1367C22.1878 21.1367 21.7845 21.0524 21.4382 20.8838C21.0964 20.7106 20.807 20.4668 20.57 20.1523C20.333 19.8379 20.1416 19.4688 19.9958 19.0449C19.8545 18.6165 19.7542 18.1471 19.695 17.6367V17.083C19.7542 16.5407 19.8545 16.0485 19.9958 15.6064C20.1416 15.1644 20.333 14.7839 20.57 14.4648C20.807 14.1458 21.0964 13.8997 21.4382 13.7266C21.78 13.5534 22.1787 13.4668 22.6345 13.4668C23.0993 13.4668 23.5117 13.5579 23.8718 13.7402C24.2318 13.918 24.5348 14.1732 24.7809 14.5059C25.027 14.834 25.2116 15.2305 25.3346 15.6953C25.4577 16.1556 25.5192 16.6683 25.5192 17.2334ZM23.8718 17.377V17.2334C23.8718 16.8916 23.8399 16.5749 23.7761 16.2832C23.7123 15.987 23.612 15.7272 23.4753 15.5039C23.3386 15.2806 23.1631 15.1074 22.9489 14.9844C22.7393 14.8568 22.4863 14.793 22.1901 14.793C21.8985 14.793 21.6478 14.8431 21.4382 14.9434C21.2285 15.0391 21.0531 15.1735 20.9118 15.3467C20.7705 15.5199 20.6611 15.7227 20.5837 15.9551C20.5062 16.1829 20.4515 16.4313 20.4196 16.7002V18.0264C20.4743 18.3545 20.5677 18.6553 20.6999 18.9287C20.832 19.2021 21.0189 19.4209 21.2604 19.585C21.5065 19.7445 21.821 19.8242 22.2038 19.8242C22.5 19.8242 22.7529 19.7604 22.9626 19.6328C23.1722 19.5052 23.3431 19.3298 23.4753 19.1064C23.612 18.8786 23.7123 18.6165 23.7761 18.3203C23.8399 18.0241 23.8718 17.7096 23.8718 17.377ZM28.9643 10.5V21H27.31V10.5H28.9643ZM30.7345 17.3838V17.2266C30.7345 16.6934 30.812 16.1989 30.9669 15.7432C31.1219 15.2829 31.3452 14.8841 31.6368 14.5469C31.9331 14.2051 32.2931 13.9408 32.7169 13.7539C33.1453 13.5625 33.6284 13.4668 34.1661 13.4668C34.7085 13.4668 35.1915 13.5625 35.6154 13.7539C36.0437 13.9408 36.406 14.2051 36.7023 14.5469C36.9985 14.8841 37.2241 15.2829 37.379 15.7432C37.534 16.1989 37.6114 16.6934 37.6114 17.2266V17.3838C37.6114 17.917 37.534 18.4115 37.379 18.8672C37.2241 19.3229 36.9985 19.7217 36.7023 20.0635C36.406 20.4007 36.046 20.665 35.6222 20.8564C35.1984 21.0433 34.7176 21.1367 34.1798 21.1367C33.6375 21.1367 33.1521 21.0433 32.7238 20.8564C32.2999 20.665 31.9399 20.4007 31.6437 20.0635C31.3474 19.7217 31.1219 19.3229 30.9669 18.8672C30.812 18.4115 30.7345 17.917 30.7345 17.3838ZM32.382 17.2266V17.3838C32.382 17.7165 32.4161 18.0309 32.4845 18.3271C32.5529 18.6234 32.6599 18.8831 32.8058 19.1064C32.9516 19.3298 33.1385 19.5052 33.3663 19.6328C33.5942 19.7604 33.8654 19.8242 34.1798 19.8242C34.4851 19.8242 34.7495 19.7604 34.9728 19.6328C35.2006 19.5052 35.3875 19.3298 35.5333 19.1064C35.6792 18.8831 35.7863 18.6234 35.8546 18.3271C35.9275 18.0309 35.964 17.7165 35.964 17.3838V17.2266C35.964 16.8984 35.9275 16.5885 35.8546 16.2969C35.7863 16.0007 35.6769 15.7386 35.5265 15.5107C35.3807 15.2829 35.1938 15.1051 34.9659 14.9775C34.7426 14.8454 34.476 14.7793 34.1661 14.7793C33.8562 14.7793 33.5874 14.8454 33.3595 14.9775C33.1362 15.1051 32.9516 15.2829 32.8058 15.5107C32.6599 15.7386 32.5529 16.0007 32.4845 16.2969C32.4161 16.5885 32.382 16.8984 32.382 17.2266ZM43.4422 19.5166V15.9893C43.4422 15.7249 43.3944 15.4971 43.2987 15.3057C43.203 15.1143 43.0571 14.9661 42.8612 14.8613C42.6698 14.7565 42.4282 14.7041 42.1366 14.7041C41.8677 14.7041 41.6353 14.7497 41.4393 14.8408C41.2433 14.932 41.0907 15.055 40.9813 15.21C40.8719 15.3649 40.8172 15.5404 40.8172 15.7363H39.1766C39.1766 15.4447 39.2472 15.1621 39.3885 14.8887C39.5298 14.6152 39.7349 14.3714 40.0038 14.1572C40.2726 13.943 40.5939 13.7744 40.9676 13.6514C41.3413 13.5283 41.7606 13.4668 42.2254 13.4668C42.7814 13.4668 43.2736 13.5602 43.702 13.7471C44.1349 13.9339 44.4745 14.2165 44.7205 14.5947C44.9712 14.9684 45.0965 15.4378 45.0965 16.0029V19.291C45.0965 19.6283 45.1193 19.9313 45.1649 20.2002C45.215 20.4645 45.2857 20.6947 45.3768 20.8906V21H43.6883C43.6108 20.8223 43.5493 20.5967 43.5038 20.3232C43.4627 20.0452 43.4422 19.7764 43.4422 19.5166ZM43.6815 16.502L43.6952 17.5205H42.5125C42.2072 17.5205 41.9383 17.5501 41.7059 17.6094C41.4735 17.6641 41.2798 17.7461 41.1248 17.8555C40.9699 17.9648 40.8537 18.097 40.7762 18.252C40.6987 18.4069 40.66 18.5824 40.66 18.7783C40.66 18.9743 40.7056 19.1543 40.7967 19.3184C40.8879 19.4779 41.02 19.6032 41.1932 19.6943C41.3709 19.7855 41.5851 19.8311 41.8358 19.8311C42.173 19.8311 42.467 19.7627 42.7176 19.626C42.9728 19.4847 43.1733 19.3138 43.3192 19.1133C43.465 18.9082 43.5425 18.7145 43.5516 18.5322L44.0848 19.2637C44.0301 19.4505 43.9367 19.651 43.8045 19.8652C43.6724 20.0794 43.4992 20.2845 43.285 20.4805C43.0754 20.6719 42.8224 20.8291 42.5262 20.9521C42.2345 21.0752 41.8973 21.1367 41.5145 21.1367C41.0314 21.1367 40.6008 21.041 40.2225 20.8496C39.8442 20.6536 39.548 20.3916 39.3338 20.0635C39.1196 19.7308 39.0125 19.3548 39.0125 18.9355C39.0125 18.5436 39.0855 18.1973 39.2313 17.8965C39.3817 17.5911 39.6004 17.3359 39.8875 17.1309C40.1792 16.9258 40.5347 16.7708 40.9539 16.666C41.3732 16.5566 41.8517 16.502 42.3895 16.502H43.6815ZM51.6109 19.4688V10.5H53.2652V21H51.7681L51.6109 19.4688ZM46.7984 17.3838V17.2402C46.7984 16.6797 46.8645 16.1693 46.9966 15.709C47.1288 15.2441 47.3202 14.8454 47.5709 14.5127C47.8215 14.1755 48.1269 13.918 48.4869 13.7402C48.8469 13.5579 49.2525 13.4668 49.7037 13.4668C50.1503 13.4668 50.5422 13.5534 50.8795 13.7266C51.2167 13.8997 51.5038 14.1481 51.7408 14.4717C51.9778 14.7907 52.1669 15.1735 52.3082 15.6201C52.4494 16.0622 52.5497 16.5544 52.6089 17.0967V17.5547C52.5497 18.0833 52.4494 18.5664 52.3082 19.0039C52.1669 19.4414 51.9778 19.8197 51.7408 20.1387C51.5038 20.4577 51.2144 20.7038 50.8726 20.877C50.5354 21.0501 50.1412 21.1367 49.69 21.1367C49.2434 21.1367 48.8401 21.0433 48.48 20.8564C48.1246 20.6696 47.8215 20.4076 47.5709 20.0703C47.3202 19.7331 47.1288 19.3366 46.9966 18.8809C46.8645 18.4206 46.7984 17.9215 46.7984 17.3838ZM48.4459 17.2402V17.3838C48.4459 17.721 48.4755 18.0355 48.5347 18.3271C48.5985 18.6188 48.6965 18.8763 48.8287 19.0996C48.9608 19.3184 49.1317 19.4915 49.3414 19.6191C49.5556 19.7422 49.8108 19.8037 50.107 19.8037C50.4807 19.8037 50.7883 19.7217 51.0298 19.5576C51.2714 19.3936 51.4605 19.1725 51.5972 18.8945C51.7385 18.612 51.8342 18.2975 51.8843 17.9512V16.7139C51.857 16.445 51.8 16.1943 51.7134 15.9619C51.6314 15.7295 51.5198 15.5267 51.3785 15.3535C51.2372 15.1758 51.0617 15.0391 50.8521 14.9434C50.647 14.8431 50.4032 14.793 50.1207 14.793C49.8199 14.793 49.5647 14.8568 49.355 14.9844C49.1454 15.112 48.9722 15.2874 48.8355 15.5107C48.7033 15.734 48.6054 15.9938 48.5416 16.29C48.4778 16.5863 48.4459 16.903 48.4459 17.2402ZM63.5459 19.4688V10.5H65.2002V21H63.7031L63.5459 19.4688ZM58.7334 17.3838V17.2402C58.7334 16.6797 58.7995 16.1693 58.9316 15.709C59.0638 15.2441 59.2552 14.8454 59.5059 14.5127C59.7565 14.1755 60.0618 13.918 60.4219 13.7402C60.7819 13.5579 61.1875 13.4668 61.6387 13.4668C62.0853 13.4668 62.4772 13.5534 62.8145 13.7266C63.1517 13.8997 63.4388 14.1481 63.6758 14.4717C63.9128 14.7907 64.1019 15.1735 64.2432 15.6201C64.3844 16.0622 64.4847 16.5544 64.5439 17.0967V17.5547C64.4847 18.0833 64.3844 18.5664 64.2432 19.0039C64.1019 19.4414 63.9128 19.8197 63.6758 20.1387C63.4388 20.4577 63.1494 20.7038 62.8076 20.877C62.4704 21.0501 62.0762 21.1367 61.625 21.1367C61.1784 21.1367 60.7751 21.0433 60.415 20.8564C60.0596 20.6696 59.7565 20.4076 59.5059 20.0703C59.2552 19.7331 59.0638 19.3366 58.9316 18.8809C58.7995 18.4206 58.7334 17.9215 58.7334 17.3838ZM60.3809 17.2402V17.3838C60.3809 17.721 60.4105 18.0355 60.4697 18.3271C60.5335 18.6188 60.6315 18.8763 60.7637 19.0996C60.8958 19.3184 61.0667 19.4915 61.2764 19.6191C61.4906 19.7422 61.7458 19.8037 62.042 19.8037C62.4157 19.8037 62.7233 19.7217 62.9648 19.5576C63.2064 19.3936 63.3955 19.1725 63.5322 18.8945C63.6735 18.612 63.7692 18.2975 63.8193 17.9512V16.7139C63.792 16.445 63.735 16.1943 63.6484 15.9619C63.5664 15.7295 63.4548 15.5267 63.3135 15.3535C63.1722 15.1758 62.9967 15.0391 62.7871 14.9434C62.582 14.8431 62.3382 14.793 62.0557 14.793C61.7549 14.793 61.4997 14.8568 61.29 14.9844C61.0804 15.112 60.9072 15.2874 60.7705 15.5107C60.6383 15.734 60.5404 15.9938 60.4766 16.29C60.4128 16.5863 60.3809 16.903 60.3809 17.2402ZM66.8884 17.3838V17.2266C66.8884 16.6934 66.9659 16.1989 67.1208 15.7432C67.2758 15.2829 67.4991 14.8841 67.7907 14.5469C68.087 14.2051 68.447 13.9408 68.8708 13.7539C69.2992 13.5625 69.7823 13.4668 70.32 13.4668C70.8624 13.4668 71.3454 13.5625 71.7693 13.7539C72.1976 13.9408 72.56 14.2051 72.8562 14.5469C73.1524 14.8841 73.378 15.2829 73.5329 15.7432C73.6879 16.1989 73.7654 16.6934 73.7654 17.2266V17.3838C73.7654 17.917 73.6879 18.4115 73.5329 18.8672C73.378 19.3229 73.1524 19.7217 72.8562 20.0635C72.56 20.4007 72.1999 20.665 71.7761 20.8564C71.3523 21.0433 70.8715 21.1367 70.3337 21.1367C69.7914 21.1367 69.306 21.0433 68.8777 20.8564C68.4538 20.665 68.0938 20.4007 67.7976 20.0635C67.5014 19.7217 67.2758 19.3229 67.1208 18.8672C66.9659 18.4115 66.8884 17.917 66.8884 17.3838ZM68.5359 17.2266V17.3838C68.5359 17.7165 68.57 18.0309 68.6384 18.3271C68.7068 18.6234 68.8139 18.8831 68.9597 19.1064C69.1055 19.3298 69.2924 19.5052 69.5202 19.6328C69.7481 19.7604 70.0193 19.8242 70.3337 19.8242C70.6391 19.8242 70.9034 19.7604 71.1267 19.6328C71.3545 19.5052 71.5414 19.3298 71.6872 19.1064C71.8331 18.8831 71.9402 18.6234 72.0085 18.3271C72.0814 18.0309 72.1179 17.7165 72.1179 17.3838V17.2266C72.1179 16.8984 72.0814 16.5885 72.0085 16.2969C71.9402 16.0007 71.8308 15.7386 71.6804 15.5107C71.5346 15.2829 71.3477 15.1051 71.1198 14.9775C70.8965 14.8454 70.6299 14.7793 70.32 14.7793C70.0101 14.7793 69.7413 14.8454 69.5134 14.9775C69.2901 15.1051 69.1055 15.2829 68.9597 15.5107C68.8139 15.7386 68.7068 16.0007 68.6384 16.2969C68.57 16.5885 68.5359 16.8984 68.5359 17.2266ZM78.4477 19.8242C78.7166 19.8242 78.9581 19.7718 79.1723 19.667C79.3911 19.5576 79.5665 19.4072 79.6987 19.2158C79.8354 19.0244 79.9106 18.8034 79.9243 18.5527H81.476C81.4669 19.0312 81.3256 19.4665 81.0522 19.8584C80.7787 20.2503 80.4164 20.5625 79.9653 20.7949C79.5141 21.0228 79.0151 21.1367 78.4682 21.1367C77.9031 21.1367 77.4109 21.041 76.9916 20.8496C76.5724 20.6536 76.2237 20.3848 75.9457 20.043C75.6677 19.7012 75.4581 19.307 75.3168 18.8604C75.1801 18.4137 75.1118 17.9352 75.1118 17.4248V17.1855C75.1118 16.6751 75.1801 16.1966 75.3168 15.75C75.4581 15.2988 75.6677 14.9023 75.9457 14.5605C76.2237 14.2188 76.5724 13.9521 76.9916 13.7607C77.4109 13.5648 77.9008 13.4668 78.4614 13.4668C79.0538 13.4668 79.5733 13.5853 80.02 13.8223C80.4666 14.0547 80.8175 14.3805 81.0727 14.7998C81.3325 15.2145 81.4669 15.6976 81.476 16.249H79.9243C79.9106 15.9756 79.8422 15.7295 79.7192 15.5107C79.6007 15.2874 79.4321 15.1097 79.2133 14.9775C78.9991 14.8454 78.7416 14.7793 78.4409 14.7793C78.1082 14.7793 77.8325 14.8477 77.6137 14.9844C77.395 15.1165 77.2241 15.2988 77.101 15.5312C76.978 15.7591 76.8891 16.0166 76.8344 16.3037C76.7843 16.5863 76.7592 16.8802 76.7592 17.1855V17.4248C76.7592 17.7301 76.7843 18.0264 76.8344 18.3135C76.8845 18.6006 76.9711 18.8581 77.0942 19.0859C77.2218 19.3092 77.395 19.4893 77.6137 19.626C77.8325 19.7581 78.1105 19.8242 78.4477 19.8242ZM87.4709 19.2568V13.6035H89.1252V21H87.5666L87.4709 19.2568ZM87.7033 17.7188L88.257 17.7051C88.257 18.2018 88.2023 18.6598 88.0929 19.0791C87.9836 19.4938 87.8149 19.8561 87.5871 20.166C87.3592 20.4714 87.0675 20.7106 86.7121 20.8838C86.3566 21.0524 85.9305 21.1367 85.4338 21.1367C85.0737 21.1367 84.7433 21.0843 84.4425 20.9795C84.1418 20.8747 83.882 20.7129 83.6632 20.4941C83.4491 20.2754 83.2827 19.9906 83.1642 19.6396C83.0457 19.2887 82.9865 18.8695 82.9865 18.3818V13.6035H84.6339V18.3955C84.6339 18.6644 84.6659 18.89 84.7297 19.0723C84.7935 19.25 84.88 19.3936 84.9894 19.5029C85.0988 19.6123 85.2264 19.6898 85.3722 19.7354C85.5181 19.7809 85.673 19.8037 85.8371 19.8037C86.3065 19.8037 86.6756 19.7126 86.9445 19.5303C87.2179 19.3434 87.4116 19.0928 87.5256 18.7783C87.644 18.4639 87.7033 18.1107 87.7033 17.7188ZM92.7411 15.1074V21H91.0936V13.6035H92.6454L92.7411 15.1074ZM92.4745 17.0283L91.9139 17.0215C91.9139 16.5111 91.9778 16.0394 92.1054 15.6064C92.233 15.1735 92.4198 14.7975 92.6659 14.4785C92.912 14.1549 93.2173 13.9066 93.5819 13.7334C93.9511 13.5557 94.3772 13.4668 94.8602 13.4668C95.1975 13.4668 95.5051 13.5169 95.7831 13.6172C96.0656 13.7129 96.3095 13.8656 96.5145 14.0752C96.7242 14.2848 96.8837 14.5537 96.993 14.8818C97.107 15.21 97.1639 15.6064 97.1639 16.0713V21H95.5165V16.2148C95.5165 15.8548 95.4618 15.5723 95.3524 15.3672C95.2476 15.1621 95.0949 15.0163 94.8944 14.9297C94.6985 14.8385 94.4638 14.793 94.1903 14.793C93.8804 14.793 93.6161 14.8522 93.3973 14.9707C93.1832 15.0892 93.0077 15.251 92.871 15.4561C92.7343 15.6611 92.634 15.8981 92.5702 16.167C92.5064 16.4359 92.4745 16.723 92.4745 17.0283ZM97.0614 16.5908L96.2889 16.7617C96.2889 16.3151 96.3505 15.8936 96.4735 15.4971C96.6011 15.096 96.7857 14.7451 97.0272 14.4443C97.2733 14.139 97.5764 13.8997 97.9364 13.7266C98.2964 13.5534 98.7089 13.4668 99.1737 13.4668C99.552 13.4668 99.8892 13.5192 100.185 13.624C100.486 13.7243 100.741 13.8838 100.951 14.1025C101.161 14.3213 101.32 14.6061 101.43 14.957C101.539 15.3034 101.594 15.7227 101.594 16.2148V21H99.9393V16.208C99.9393 15.8343 99.8847 15.5449 99.7753 15.3398C99.6705 15.1348 99.5201 14.9935 99.3241 14.916C99.1281 14.834 98.8934 14.793 98.62 14.793C98.3648 14.793 98.1392 14.8408 97.9432 14.9365C97.7518 15.0277 97.5901 15.1576 97.4579 15.3262C97.3257 15.4902 97.2255 15.6794 97.1571 15.8936C97.0933 16.1077 97.0614 16.3402 97.0614 16.5908ZM106.83 21.1367C106.283 21.1367 105.788 21.0479 105.346 20.8701C104.909 20.6878 104.535 20.4349 104.225 20.1113C103.92 19.7878 103.685 19.4072 103.521 18.9697C103.357 18.5322 103.275 18.0605 103.275 17.5547V17.2812C103.275 16.7025 103.359 16.1784 103.528 15.709C103.697 15.2396 103.931 14.8385 104.232 14.5059C104.533 14.1686 104.888 13.9111 105.298 13.7334C105.709 13.5557 106.153 13.4668 106.631 13.4668C107.16 13.4668 107.623 13.5557 108.019 13.7334C108.416 13.9111 108.744 14.1618 109.004 14.4854C109.268 14.8044 109.464 15.1849 109.591 15.627C109.724 16.069 109.79 16.5566 109.79 17.0898V17.7939H104.075V16.6113H108.163V16.4814C108.154 16.1852 108.094 15.9072 107.985 15.6475C107.88 15.3877 107.718 15.1781 107.5 15.0186C107.281 14.859 106.989 14.7793 106.625 14.7793C106.351 14.7793 106.107 14.8385 105.893 14.957C105.684 15.071 105.508 15.2373 105.367 15.4561C105.226 15.6748 105.116 15.9391 105.039 16.249C104.966 16.5544 104.929 16.8984 104.929 17.2812V17.5547C104.929 17.8783 104.973 18.179 105.059 18.457C105.15 18.7305 105.282 18.9697 105.456 19.1748C105.629 19.3799 105.838 19.5417 106.085 19.6602C106.331 19.7741 106.611 19.8311 106.925 19.8311C107.322 19.8311 107.675 19.7513 107.985 19.5918C108.295 19.4323 108.564 19.2067 108.792 18.915L109.66 19.7559C109.5 19.9883 109.293 20.2116 109.038 20.4258C108.782 20.6354 108.47 20.8063 108.101 20.9385C107.737 21.0706 107.313 21.1367 106.83 21.1367ZM112.989 15.1826V21H111.341V13.6035H112.893L112.989 15.1826ZM112.695 17.0283L112.161 17.0215C112.166 16.4974 112.239 16.0166 112.38 15.5791C112.526 15.1416 112.727 14.7656 112.982 14.4512C113.242 14.1367 113.551 13.8952 113.911 13.7266C114.271 13.5534 114.673 13.4668 115.115 13.4668C115.47 13.4668 115.791 13.5169 116.078 13.6172C116.37 13.7129 116.618 13.8701 116.824 14.0889C117.033 14.3076 117.193 14.5924 117.302 14.9434C117.411 15.2897 117.466 15.7158 117.466 16.2217V21H115.812V16.2148C115.812 15.8594 115.759 15.5791 115.655 15.374C115.554 15.1644 115.406 15.0163 115.21 14.9297C115.019 14.8385 114.78 14.793 114.493 14.793C114.21 14.793 113.957 14.8522 113.734 14.9707C113.51 15.0892 113.321 15.251 113.166 15.4561C113.016 15.6611 112.9 15.8981 112.818 16.167C112.736 16.4359 112.695 16.723 112.695 17.0283ZM122.818 13.6035V14.8066H118.648V13.6035H122.818ZM119.852 11.792H121.499V18.9561C121.499 19.1839 121.531 19.3594 121.595 19.4824C121.663 19.6009 121.757 19.6807 121.875 19.7217C121.994 19.7627 122.133 19.7832 122.292 19.7832C122.406 19.7832 122.515 19.7764 122.62 19.7627C122.725 19.749 122.809 19.7354 122.873 19.7217L122.88 20.9795C122.743 21.0205 122.584 21.057 122.401 21.0889C122.224 21.1208 122.019 21.1367 121.786 21.1367C121.408 21.1367 121.073 21.0706 120.781 20.9385C120.49 20.8018 120.262 20.5807 120.098 20.2754C119.934 19.9701 119.852 19.5645 119.852 19.0586V11.792Z" fill="#F5FAFC" fill-opacity="0.96"/>
</svg>
