<svg width="178" height="36" viewBox="0 0 178 36" fill="none" xmlns="http://www.w3.org/2000/svg">
<rect width="178" height="36" rx="12" fill="#EBF8FA"/>
<path d="M23.1625 19.7598H24.8715C24.8168 20.4115 24.6345 20.9925 24.3246 21.5029C24.0148 22.0088 23.5795 22.4076 23.019 22.6992C22.4584 22.9909 21.7771 23.1367 20.975 23.1367C20.3598 23.1367 19.8061 23.0273 19.3139 22.8086C18.8217 22.5853 18.4002 22.2708 18.0493 21.8652C17.6983 21.4551 17.4295 20.9606 17.2426 20.3818C17.0603 19.8031 16.9692 19.1559 16.9692 18.4404V17.6133C16.9692 16.8978 17.0626 16.2507 17.2495 15.6719C17.4409 15.0931 17.7143 14.5986 18.0698 14.1885C18.4252 13.7738 18.8513 13.457 19.3481 13.2383C19.8494 13.0195 20.4122 12.9102 21.0366 12.9102C21.8295 12.9102 22.4995 13.056 23.0463 13.3477C23.5932 13.6393 24.017 14.0426 24.3178 14.5576C24.6231 15.0726 24.81 15.6628 24.8784 16.3281H23.1694C23.1238 15.8997 23.0235 15.5329 22.8686 15.2275C22.7182 14.9222 22.4949 14.6898 22.1987 14.5303C21.9024 14.3662 21.5151 14.2842 21.0366 14.2842C20.6446 14.2842 20.3028 14.3571 20.0112 14.5029C19.7195 14.6488 19.4757 14.863 19.2797 15.1455C19.0838 15.4281 18.9356 15.7767 18.8354 16.1914C18.7397 16.6016 18.6918 17.071 18.6918 17.5996V18.4404C18.6918 18.9417 18.7351 19.3975 18.8217 19.8076C18.9129 20.2132 19.0496 20.5618 19.2319 20.8535C19.4187 21.1452 19.6557 21.3708 19.9428 21.5303C20.2299 21.6898 20.574 21.7695 20.975 21.7695C21.4627 21.7695 21.8569 21.6921 22.1577 21.5371C22.463 21.3822 22.6931 21.1566 22.8481 20.8604C23.0076 20.5596 23.1124 20.1927 23.1625 19.7598ZM28.3097 12.5V23H26.6554V12.5H28.3097ZM32.1581 15.6035V23H30.5038V15.6035H32.1581ZM30.3944 13.6621C30.3944 13.4115 30.4764 13.2041 30.6405 13.04C30.8091 12.8714 31.0415 12.7871 31.3378 12.7871C31.6294 12.7871 31.8596 12.8714 32.0282 13.04C32.1968 13.2041 32.2811 13.4115 32.2811 13.6621C32.2811 13.9082 32.1968 14.1133 32.0282 14.2773C31.8596 14.4414 31.6294 14.5234 31.3378 14.5234C31.0415 14.5234 30.8091 14.4414 30.6405 14.2773C30.4764 14.1133 30.3944 13.9082 30.3944 13.6621ZM37.2643 21.8242C37.5331 21.8242 37.7747 21.7718 37.9889 21.667C38.2076 21.5576 38.3831 21.4072 38.5152 21.2158C38.652 21.0244 38.7271 20.8034 38.7408 20.5527H40.2926C40.2835 21.0312 40.1422 21.4665 39.8687 21.8584C39.5953 22.2503 39.233 22.5625 38.7818 22.7949C38.3307 23.0228 37.8316 23.1367 37.2848 23.1367C36.7197 23.1367 36.2275 23.041 35.8082 22.8496C35.3889 22.6536 35.0403 22.3848 34.7623 22.043C34.4843 21.7012 34.2747 21.307 34.1334 20.8604C33.9967 20.4137 33.9283 19.9352 33.9283 19.4248V19.1855C33.9283 18.6751 33.9967 18.1966 34.1334 17.75C34.2747 17.2988 34.4843 16.9023 34.7623 16.5605C35.0403 16.2188 35.3889 15.9521 35.8082 15.7607C36.2275 15.5648 36.7174 15.4668 37.2779 15.4668C37.8704 15.4668 38.3899 15.5853 38.8365 15.8223C39.2831 16.0547 39.634 16.3805 39.8893 16.7998C40.149 17.2145 40.2835 17.6976 40.2926 18.249H38.7408C38.7271 17.9756 38.6588 17.7295 38.5357 17.5107C38.4173 17.2874 38.2486 17.1097 38.0299 16.9775C37.8157 16.8454 37.5582 16.7793 37.2574 16.7793C36.9247 16.7793 36.649 16.8477 36.4303 16.9844C36.2115 17.1165 36.0406 17.2988 35.9176 17.5312C35.7945 17.7591 35.7057 18.0166 35.651 18.3037C35.6008 18.5863 35.5758 18.8802 35.5758 19.1855V19.4248C35.5758 19.7301 35.6008 20.0264 35.651 20.3135C35.7011 20.6006 35.7877 20.8581 35.9107 21.0859C36.0383 21.3092 36.2115 21.4893 36.4303 21.626C36.649 21.7581 36.927 21.8242 37.2643 21.8242ZM43.4984 12.5V23H41.8441V12.5H43.4984ZM48.0921 15.6035L44.8724 19.1719L43.1087 20.9766L42.678 19.582L44.0111 17.9346L46.1028 15.6035H48.0921ZM46.4583 23L44.0589 19.5273L45.098 18.3721L48.3655 23H46.4583ZM57.1287 19.2881H54.5378V17.9277H57.1287C57.5798 17.9277 57.9444 17.8548 58.2224 17.709C58.5004 17.5632 58.7032 17.3626 58.8308 17.1074C58.963 16.8477 59.0291 16.5514 59.0291 16.2188C59.0291 15.9043 58.963 15.6104 58.8308 15.3369C58.7032 15.0589 58.5004 14.8356 58.2224 14.667C57.9444 14.4984 57.5798 14.4141 57.1287 14.4141H55.0642V23H53.3484V13.0469H57.1287C57.8989 13.0469 58.5528 13.1836 59.0906 13.457C59.6329 13.7259 60.0453 14.0996 60.3279 14.5781C60.6104 15.0521 60.7517 15.5944 60.7517 16.2051C60.7517 16.8477 60.6104 17.3991 60.3279 17.8594C60.0453 18.3197 59.6329 18.6729 59.0906 18.9189C58.5528 19.165 57.8989 19.2881 57.1287 19.2881ZM65.4067 14.373L62.4331 23H60.6352L64.3813 13.0469H65.5298L65.4067 14.373ZM67.895 23L64.9145 14.373L64.7846 13.0469H65.9399L69.6997 23H67.895ZM67.7514 19.3086V20.6689H62.3374V19.3086H67.7514ZM78.9895 13.0469V23H77.2736L72.8098 15.8701V23H71.0939V13.0469H72.8098L77.2873 20.1904V13.0469H78.9895ZM87.9371 21.8242C88.206 21.8242 88.4476 21.7718 88.6618 21.667C88.8805 21.5576 89.056 21.4072 89.1881 21.2158C89.3248 21.0244 89.4 20.8034 89.4137 20.5527H90.9655C90.9564 21.0312 90.8151 21.4665 90.5416 21.8584C90.2682 22.2503 89.9059 22.5625 89.4547 22.7949C89.0036 23.0228 88.5045 23.1367 87.9577 23.1367C87.3926 23.1367 86.9004 23.041 86.4811 22.8496C86.0618 22.6536 85.7132 22.3848 85.4352 22.043C85.1572 21.7012 84.9476 21.307 84.8063 20.8604C84.6696 20.4137 84.6012 19.9352 84.6012 19.4248V19.1855C84.6012 18.6751 84.6696 18.1966 84.8063 17.75C84.9476 17.2988 85.1572 16.9023 85.4352 16.5605C85.7132 16.2188 86.0618 15.9521 86.4811 15.7607C86.9004 15.5648 87.3903 15.4668 87.9508 15.4668C88.5433 15.4668 89.0628 15.5853 89.5094 15.8223C89.956 16.0547 90.3069 16.3805 90.5621 16.7998C90.8219 17.2145 90.9564 17.6976 90.9655 18.249H89.4137C89.4 17.9756 89.3317 17.7295 89.2086 17.5107C89.0901 17.2874 88.9215 17.1097 88.7028 16.9775C88.4886 16.8454 88.2311 16.7793 87.9303 16.7793C87.5976 16.7793 87.3219 16.8477 87.1032 16.9844C86.8844 17.1165 86.7135 17.2988 86.5905 17.5312C86.4674 17.7591 86.3786 18.0166 86.3239 18.3037C86.2737 18.5863 86.2487 18.8802 86.2487 19.1855V19.4248C86.2487 19.7301 86.2737 20.0264 86.3239 20.3135C86.374 20.6006 86.4606 20.8581 86.5836 21.0859C86.7112 21.3092 86.8844 21.4893 87.1032 21.626C87.3219 21.7581 87.5999 21.8242 87.9371 21.8242ZM96.68 21.5166V17.9893C96.68 17.7249 96.6322 17.4971 96.5365 17.3057C96.4408 17.1143 96.2949 16.9661 96.099 16.8613C95.9076 16.7565 95.666 16.7041 95.3744 16.7041C95.1055 16.7041 94.8731 16.7497 94.6771 16.8408C94.4811 16.932 94.3285 17.055 94.2191 17.21C94.1097 17.3649 94.055 17.5404 94.055 17.7363H92.4144C92.4144 17.4447 92.4851 17.1621 92.6263 16.8887C92.7676 16.6152 92.9727 16.3714 93.2416 16.1572C93.5104 15.943 93.8317 15.7744 94.2054 15.6514C94.5791 15.5283 94.9984 15.4668 95.4632 15.4668C96.0192 15.4668 96.5114 15.5602 96.9398 15.7471C97.3727 15.9339 97.7123 16.2165 97.9584 16.5947C98.209 16.9684 98.3343 17.4378 98.3343 18.0029V21.291C98.3343 21.6283 98.3571 21.9313 98.4027 22.2002C98.4528 22.4645 98.5235 22.6947 98.6146 22.8906V23H96.9261C96.8487 22.8223 96.7871 22.5967 96.7416 22.3232C96.7005 22.0452 96.68 21.7764 96.68 21.5166ZM96.9193 18.502L96.933 19.5205H95.7504C95.445 19.5205 95.1761 19.5501 94.9437 19.6094C94.7113 19.6641 94.5176 19.7461 94.3627 19.8555C94.2077 19.9648 94.0915 20.097 94.014 20.252C93.9365 20.4069 93.8978 20.5824 93.8978 20.7783C93.8978 20.9743 93.9434 21.1543 94.0345 21.3184C94.1257 21.4779 94.2578 21.6032 94.431 21.6943C94.6087 21.7855 94.8229 21.8311 95.0736 21.8311C95.4108 21.8311 95.7048 21.7627 95.9554 21.626C96.2106 21.4847 96.4112 21.3138 96.557 21.1133C96.7028 20.9082 96.7803 20.7145 96.7894 20.5322L97.3226 21.2637C97.2679 21.4505 97.1745 21.651 97.0423 21.8652C96.9102 22.0794 96.737 22.2845 96.5228 22.4805C96.3132 22.6719 96.0602 22.8291 95.764 22.9521C95.4724 23.0752 95.1351 23.1367 94.7523 23.1367C94.2692 23.1367 93.8386 23.041 93.4603 22.8496C93.0821 22.6536 92.7858 22.3916 92.5716 22.0635C92.3574 21.7308 92.2504 21.3548 92.2504 20.9355C92.2504 20.5436 92.3233 20.1973 92.4691 19.8965C92.6195 19.5911 92.8382 19.3359 93.1254 19.1309C93.417 18.9258 93.7725 18.7708 94.1918 18.666C94.611 18.5566 95.0895 18.502 95.6273 18.502H96.9193ZM101.991 17.0117V23H100.344V15.6035H101.916L101.991 17.0117ZM104.254 15.5557L104.24 17.0869C104.14 17.0687 104.031 17.055 103.912 17.0459C103.798 17.0368 103.684 17.0322 103.57 17.0322C103.288 17.0322 103.039 17.0732 102.825 17.1553C102.611 17.2327 102.431 17.3467 102.285 17.4971C102.144 17.6429 102.035 17.8206 101.957 18.0303C101.88 18.2399 101.834 18.4746 101.82 18.7344L101.444 18.7617C101.444 18.2969 101.49 17.8662 101.581 17.4697C101.672 17.0732 101.809 16.7246 101.991 16.4238C102.178 16.123 102.411 15.8883 102.689 15.7197C102.971 15.5511 103.297 15.4668 103.666 15.4668C103.766 15.4668 103.873 15.4759 103.987 15.4941C104.106 15.5124 104.195 15.5329 104.254 15.5557ZM109.941 21.4688V12.5H111.596V23H110.098L109.941 21.4688ZM105.129 19.3838V19.2402C105.129 18.6797 105.195 18.1693 105.327 17.709C105.459 17.2441 105.651 16.8454 105.901 16.5127C106.152 16.1755 106.457 15.918 106.817 15.7402C107.177 15.5579 107.583 15.4668 108.034 15.4668C108.481 15.4668 108.873 15.5534 109.21 15.7266C109.547 15.8997 109.834 16.1481 110.071 16.4717C110.308 16.7907 110.497 17.1735 110.638 17.6201C110.78 18.0622 110.88 18.5544 110.939 19.0967V19.5547C110.88 20.0833 110.78 20.5664 110.638 21.0039C110.497 21.4414 110.308 21.8197 110.071 22.1387C109.834 22.4577 109.545 22.7038 109.203 22.877C108.866 23.0501 108.471 23.1367 108.02 23.1367C107.574 23.1367 107.17 23.0433 106.81 22.8564C106.455 22.6696 106.152 22.4076 105.901 22.0703C105.651 21.7331 105.459 21.3366 105.327 20.8809C105.195 20.4206 105.129 19.9215 105.129 19.3838ZM106.776 19.2402V19.3838C106.776 19.721 106.806 20.0355 106.865 20.3271C106.929 20.6188 107.027 20.8763 107.159 21.0996C107.291 21.3184 107.462 21.4915 107.672 21.6191C107.886 21.7422 108.141 21.8037 108.437 21.8037C108.811 21.8037 109.119 21.7217 109.36 21.5576C109.602 21.3936 109.791 21.1725 109.928 20.8945C110.069 20.612 110.165 20.2975 110.215 19.9512V18.7139C110.187 18.445 110.13 18.1943 110.044 17.9619C109.962 17.7295 109.85 17.5267 109.709 17.3535C109.568 17.1758 109.392 17.0391 109.182 16.9434C108.977 16.8431 108.734 16.793 108.451 16.793C108.15 16.793 107.895 16.8568 107.685 16.9844C107.476 17.112 107.303 17.2874 107.166 17.5107C107.034 17.734 106.936 17.9938 106.872 18.29C106.808 18.5863 106.776 18.903 106.776 19.2402ZM119.019 17.0254V25.8438H117.371V15.6035H118.889L119.019 17.0254ZM123.838 19.2334V19.377C123.838 19.9147 123.774 20.4137 123.647 20.874C123.524 21.3298 123.339 21.7285 123.093 22.0703C122.851 22.4076 122.553 22.6696 122.197 22.8564C121.842 23.0433 121.432 23.1367 120.967 23.1367C120.507 23.1367 120.103 23.0524 119.757 22.8838C119.415 22.7106 119.126 22.4668 118.889 22.1523C118.652 21.8379 118.461 21.4688 118.315 21.0449C118.173 20.6165 118.073 20.1471 118.014 19.6367V19.083C118.073 18.5407 118.173 18.0485 118.315 17.6064C118.461 17.1644 118.652 16.7839 118.889 16.4648C119.126 16.1458 119.415 15.8997 119.757 15.7266C120.099 15.5534 120.498 15.4668 120.953 15.4668C121.418 15.4668 121.831 15.5579 122.191 15.7402C122.551 15.918 122.854 16.1732 123.1 16.5059C123.346 16.834 123.531 17.2305 123.654 17.6953C123.777 18.1556 123.838 18.6683 123.838 19.2334ZM122.191 19.377V19.2334C122.191 18.8916 122.159 18.5749 122.095 18.2832C122.031 17.987 121.931 17.7272 121.794 17.5039C121.657 17.2806 121.482 17.1074 121.268 16.9844C121.058 16.8568 120.805 16.793 120.509 16.793C120.217 16.793 119.967 16.8431 119.757 16.9434C119.547 17.0391 119.372 17.1735 119.231 17.3467C119.089 17.5199 118.98 17.7227 118.903 17.9551C118.825 18.1829 118.77 18.4313 118.739 18.7002V20.0264C118.793 20.3545 118.887 20.6553 119.019 20.9287C119.151 21.2021 119.338 21.4209 119.579 21.585C119.825 21.7445 120.14 21.8242 120.523 21.8242C120.819 21.8242 121.072 21.7604 121.281 21.6328C121.491 21.5052 121.662 21.3298 121.794 21.1064C121.931 20.8786 122.031 20.6165 122.095 20.3203C122.159 20.0241 122.191 19.7096 122.191 19.377ZM127.283 15.6035V23H125.629V15.6035H127.283ZM125.519 13.6621C125.519 13.4115 125.602 13.2041 125.766 13.04C125.934 12.8714 126.167 12.7871 126.463 12.7871C126.755 12.7871 126.985 12.8714 127.153 13.04C127.322 13.2041 127.406 13.4115 127.406 13.6621C127.406 13.9082 127.322 14.1133 127.153 14.2773C126.985 14.4414 126.755 14.5234 126.463 14.5234C126.167 14.5234 125.934 14.4414 125.766 14.2773C125.602 14.1133 125.519 13.9082 125.519 13.6621ZM132.389 21.8242C132.658 21.8242 132.9 21.7718 133.114 21.667C133.333 21.5576 133.508 21.4072 133.64 21.2158C133.777 21.0244 133.852 20.8034 133.866 20.5527H135.418C135.409 21.0312 135.267 21.4665 134.994 21.8584C134.72 22.2503 134.358 22.5625 133.907 22.7949C133.456 23.0228 132.957 23.1367 132.41 23.1367C131.845 23.1367 131.353 23.041 130.933 22.8496C130.514 22.6536 130.165 22.3848 129.887 22.043C129.609 21.7012 129.4 21.307 129.258 20.8604C129.122 20.4137 129.053 19.9352 129.053 19.4248V19.1855C129.053 18.6751 129.122 18.1966 129.258 17.75C129.4 17.2988 129.609 16.9023 129.887 16.5605C130.165 16.2188 130.514 15.9521 130.933 15.7607C131.353 15.5648 131.842 15.4668 132.403 15.4668C132.995 15.4668 133.515 15.5853 133.962 15.8223C134.408 16.0547 134.759 16.3805 135.014 16.7998C135.274 17.2145 135.409 17.6976 135.418 18.249H133.866C133.852 17.9756 133.784 17.7295 133.661 17.5107C133.542 17.2874 133.374 17.1097 133.155 16.9775C132.941 16.8454 132.683 16.7793 132.382 16.7793C132.05 16.7793 131.774 16.8477 131.555 16.9844C131.337 17.1165 131.166 17.2988 131.043 17.5312C130.92 17.7591 130.831 18.0166 130.776 18.3037C130.726 18.5863 130.701 18.8802 130.701 19.1855V19.4248C130.701 19.7301 130.726 20.0264 130.776 20.3135C130.826 20.6006 130.913 20.8581 131.036 21.0859C131.163 21.3092 131.337 21.4893 131.555 21.626C131.774 21.7581 132.052 21.8242 132.389 21.8242ZM140.353 15.6035V16.8066H136.183V15.6035H140.353ZM137.386 13.792H139.034V20.9561C139.034 21.1839 139.065 21.3594 139.129 21.4824C139.198 21.6009 139.291 21.6807 139.41 21.7217C139.528 21.7627 139.667 21.7832 139.827 21.7832C139.94 21.7832 140.05 21.7764 140.155 21.7627C140.26 21.749 140.344 21.7354 140.408 21.7217L140.414 22.9795C140.278 23.0205 140.118 23.057 139.936 23.0889C139.758 23.1208 139.553 23.1367 139.321 23.1367C138.942 23.1367 138.607 23.0706 138.316 22.9385C138.024 22.8018 137.796 22.5807 137.632 22.2754C137.468 21.9701 137.386 21.5645 137.386 21.0586V13.792ZM146.355 21.2568V15.6035H148.009V23H146.45L146.355 21.2568ZM146.587 19.7188L147.141 19.7051C147.141 20.2018 147.086 20.6598 146.977 21.0791C146.867 21.4938 146.699 21.8561 146.471 22.166C146.243 22.4714 145.951 22.7106 145.596 22.8838C145.24 23.0524 144.814 23.1367 144.317 23.1367C143.957 23.1367 143.627 23.0843 143.326 22.9795C143.026 22.8747 142.766 22.7129 142.547 22.4941C142.333 22.2754 142.166 21.9906 142.048 21.6396C141.929 21.2887 141.87 20.8695 141.87 20.3818V15.6035H143.518V20.3955C143.518 20.6644 143.55 20.89 143.613 21.0723C143.677 21.25 143.764 21.3936 143.873 21.5029C143.983 21.6123 144.11 21.6898 144.256 21.7354C144.402 21.7809 144.557 21.8037 144.721 21.8037C145.19 21.8037 145.559 21.7126 145.828 21.5303C146.102 21.3434 146.295 21.0928 146.409 20.7783C146.528 20.4639 146.587 20.1107 146.587 19.7188ZM151.632 17.0117V23H149.984V15.6035H151.556L151.632 17.0117ZM153.894 15.5557L153.881 17.0869C153.78 17.0687 153.671 17.055 153.553 17.0459C153.439 17.0368 153.325 17.0322 153.211 17.0322C152.928 17.0322 152.68 17.0732 152.466 17.1553C152.251 17.2327 152.071 17.3467 151.926 17.4971C151.784 17.6429 151.675 17.8206 151.598 18.0303C151.52 18.2399 151.474 18.4746 151.461 18.7344L151.085 18.7617C151.085 18.2969 151.13 17.8662 151.222 17.4697C151.313 17.0732 151.449 16.7246 151.632 16.4238C151.819 16.123 152.051 15.8883 152.329 15.7197C152.612 15.5511 152.937 15.4668 153.306 15.4668C153.407 15.4668 153.514 15.4759 153.628 15.4941C153.746 15.5124 153.835 15.5329 153.894 15.5557ZM158.331 23.1367C157.784 23.1367 157.289 23.0479 156.847 22.8701C156.41 22.6878 156.036 22.4349 155.726 22.1113C155.421 21.7878 155.186 21.4072 155.022 20.9697C154.858 20.5322 154.776 20.0605 154.776 19.5547V19.2812C154.776 18.7025 154.86 18.1784 155.029 17.709C155.197 17.2396 155.432 16.8385 155.733 16.5059C156.034 16.1686 156.389 15.9111 156.799 15.7334C157.21 15.5557 157.654 15.4668 158.132 15.4668C158.661 15.4668 159.124 15.5557 159.52 15.7334C159.917 15.9111 160.245 16.1618 160.504 16.4854C160.769 16.8044 160.965 17.1849 161.092 17.627C161.225 18.069 161.291 18.5566 161.291 19.0898V19.7939H155.576V18.6113H159.664V18.4814C159.655 18.1852 159.595 17.9072 159.486 17.6475C159.381 17.3877 159.219 17.1781 159.001 17.0186C158.782 16.859 158.49 16.7793 158.126 16.7793C157.852 16.7793 157.608 16.8385 157.394 16.957C157.184 17.071 157.009 17.2373 156.868 17.4561C156.726 17.6748 156.617 17.9391 156.54 18.249C156.467 18.5544 156.43 18.8984 156.43 19.2812V19.5547C156.43 19.8783 156.474 20.179 156.56 20.457C156.651 20.7305 156.783 20.9697 156.957 21.1748C157.13 21.3799 157.339 21.5417 157.586 21.6602C157.832 21.7741 158.112 21.8311 158.426 21.8311C158.823 21.8311 159.176 21.7513 159.486 21.5918C159.796 21.4323 160.065 21.2067 160.293 20.915L161.161 21.7559C161.001 21.9883 160.794 22.2116 160.539 22.4258C160.283 22.6354 159.971 22.8063 159.602 22.9385C159.238 23.0706 158.814 23.1367 158.331 23.1367Z" fill="#0D4582"/>
</svg>
