<svg width="101" height="104" viewBox="0 0 101 104" fill="none" xmlns="http://www.w3.org/2000/svg">
<circle cx="2.02246" cy="2.02295" r="1.02246" fill="#9BDEF7"/>
<circle cx="2.02246" cy="7.51147" r="1.02246" fill="#9BDEF7"/>
<circle cx="2.02246" cy="13" r="1.02246" fill="#9BDEF7"/>
<circle cx="2.02246" cy="18.4893" r="1.02246" fill="#9BDEF7"/>
<circle cx="2.02246" cy="23.9778" r="1.02246" fill="#9BDEF7"/>
<circle cx="7.51123" cy="2.02271" r="1.02246" fill="#9BDEF7"/>
<circle cx="7.51123" cy="7.51147" r="1.02246" fill="#9BDEF7"/>
<circle cx="7.51123" cy="13" r="1.02246" fill="#9BDEF7"/>
<circle cx="7.51123" cy="18.4893" r="1.02246" fill="#9BDEF7"/>
<circle cx="7.51123" cy="23.9778" r="1.02246" fill="#9BDEF7"/>
<circle cx="13" cy="2.02271" r="1.02246" fill="#9BDEF7"/>
<circle cx="13" cy="7.51147" r="1.02246" fill="#9BDEF7"/>
<circle cx="13" cy="13" r="1.02246" fill="#9BDEF7"/>
<circle cx="13" cy="18.4893" r="1.02246" fill="#9BDEF7"/>
<circle cx="13" cy="23.9778" r="1.02246" fill="#9BDEF7"/>
<circle cx="18.4888" cy="2.02271" r="1.02246" fill="#9BDEF7"/>
<circle cx="18.4888" cy="7.51147" r="1.02246" fill="#9BDEF7"/>
<circle cx="18.4888" cy="13" r="1.02246" fill="#9BDEF7"/>
<circle cx="18.4888" cy="18.4893" r="1.02246" fill="#9BDEF7"/>
<circle cx="18.4888" cy="23.9778" r="1.02246" fill="#9BDEF7"/>
<circle cx="23.9775" cy="2.02271" r="1.02246" fill="#9BDEF7"/>
<circle cx="23.9775" cy="7.51147" r="1.02246" fill="#9BDEF7"/>
<circle cx="23.9775" cy="13" r="1.02246" fill="#9BDEF7"/>
<circle cx="23.9775" cy="18.4893" r="1.02246" fill="#9BDEF7"/>
<circle cx="23.9775" cy="23.9778" r="1.02246" fill="#9BDEF7"/>
<circle cx="77.0229" cy="77.0232" r="1.02246" fill="#9BDEF7"/>
<circle cx="77.0225" cy="82.5117" r="1.02246" fill="#9BDEF7"/>
<circle cx="77.0225" cy="88.0002" r="1.02246" fill="#9BDEF7"/>
<circle cx="77.0225" cy="93.489" r="1.02246" fill="#9BDEF7"/>
<circle cx="77.0225" cy="98.9775" r="1.02246" fill="#9BDEF7"/>
<circle cx="82.5112" cy="77.0225" r="1.02246" fill="#9BDEF7"/>
<circle cx="82.5112" cy="82.5117" r="1.02246" fill="#9BDEF7"/>
<circle cx="82.5112" cy="88.0002" r="1.02246" fill="#9BDEF7"/>
<circle cx="82.5112" cy="93.489" r="1.02246" fill="#9BDEF7"/>
<circle cx="82.5112" cy="98.9775" r="1.02246" fill="#9BDEF7"/>
<circle cx="88" cy="77.0225" r="1.02246" fill="#9BDEF7"/>
<circle cx="88" cy="82.5117" r="1.02246" fill="#9BDEF7"/>
<circle cx="88" cy="88.0002" r="1.02246" fill="#9BDEF7"/>
<circle cx="88" cy="93.489" r="1.02246" fill="#9BDEF7"/>
<circle cx="88" cy="98.9775" r="1.02246" fill="#9BDEF7"/>
<circle cx="93.4888" cy="77.0225" r="1.02246" fill="#9BDEF7"/>
<circle cx="93.4888" cy="82.5117" r="1.02246" fill="#9BDEF7"/>
<circle cx="93.4888" cy="88.0002" r="1.02246" fill="#9BDEF7"/>
<circle cx="93.4888" cy="93.489" r="1.02246" fill="#9BDEF7"/>
<circle cx="93.4888" cy="98.9775" r="1.02246" fill="#9BDEF7"/>
<circle cx="98.9775" cy="77.0225" r="1.02246" fill="#9BDEF7"/>
<circle cx="98.9775" cy="82.5117" r="1.02246" fill="#9BDEF7"/>
<circle cx="98.9775" cy="88.0002" r="1.02246" fill="#9BDEF7"/>
<circle cx="98.9775" cy="93.489" r="1.02246" fill="#9BDEF7"/>
<circle cx="98.9775" cy="98.9775" r="1.02246" fill="#9BDEF7"/>
<ellipse opacity="0.4" cx="50" cy="99" rx="40" ry="5" fill="url(#paint0_radial_352_46086)"/>
<path d="M91.266 9.04829C91.2412 9.18481 91.1171 9.28039 90.9788 9.26949C90.8404 9.25858 90.7328 9.14472 90.7297 9.00601C90.7159 8.38154 90.5096 7.43832 89.9435 6.65885C89.3869 5.89246 88.4741 5.27032 87 5.27032C86.8519 5.27032 86.7313 5.15112 86.7297 5.003C86.728 4.85489 86.8459 4.73304 86.994 4.72975C87.6185 4.71587 88.5617 4.50957 89.3412 3.94349C90.1075 3.38693 90.7297 2.47415 90.7297 1C90.7297 0.851877 90.8489 0.731342 90.997 0.729695C91.1451 0.72805 91.267 0.845908 91.2703 0.993995C91.2841 1.61846 91.4904 2.56168 92.0565 3.34116C92.6131 4.10754 93.5259 4.72968 95 4.72968C95.1481 4.72968 95.2687 4.84888 95.2703 4.997C95.272 5.14511 95.1541 5.26696 95.006 5.27025C94.3906 5.28393 93.5908 5.49082 92.88 6.05719C92.1737 6.62003 91.5376 7.55188 91.266 9.04829Z" fill="#54BFF4" stroke="#54BFF4" stroke-width="0.540643" stroke-linejoin="round"/>
<path d="M5.26597 100.048C5.24119 100.185 5.11707 100.28 4.97875 100.269C4.84043 100.259 4.73283 100.145 4.72975 100.006C4.71587 99.3815 4.50956 98.4383 3.94349 97.6588C3.38693 96.8925 2.47415 96.2703 1 96.2703C0.851877 96.2703 0.73134 96.1511 0.729695 96.003C0.728049 95.8549 0.845908 95.733 0.993995 95.7297C1.61846 95.7159 2.56168 95.5096 3.34115 94.9435C4.10754 94.3869 4.72968 93.4741 4.72968 92C4.72968 91.8519 4.84888 91.7313 4.997 91.7297C5.14511 91.7281 5.26696 91.8459 5.27025 91.994C5.28413 92.6185 5.49044 93.5617 6.05651 94.3412C6.61307 95.1075 7.52585 95.7297 9 95.7297C9.14812 95.7297 9.26866 95.8489 9.2703 95.997C9.27195 96.1451 9.15409 96.267 9.00601 96.2703C8.39059 96.2839 7.59077 96.4908 6.88003 97.0572C6.1737 97.62 5.53764 98.5519 5.26597 100.048Z" fill="#54BFF4" stroke="#54BFF4" stroke-width="0.540643" stroke-linejoin="round"/>
<path d="M98.1352 21.0243C98.1226 21.0937 98.0595 21.1423 97.9892 21.1368C97.9189 21.1312 97.8642 21.0733 97.8626 21.0028C97.8557 20.6909 97.7526 20.2198 97.4699 19.8305C97.192 19.4479 96.7363 19.1372 96 19.1372C95.9247 19.1372 95.8634 19.0766 95.8626 19.0013C95.8617 18.926 95.9217 18.864 95.9969 18.8624C96.3088 18.8554 96.78 18.7524 97.1692 18.4697C97.5519 18.1918 97.8626 17.7361 97.8626 16.9998C97.8626 16.9245 97.9232 16.8632 97.9985 16.8623C98.0738 16.8615 98.1357 16.9214 98.1374 16.9967C98.1443 17.3086 98.2474 17.7797 98.5301 18.169C98.808 18.5516 99.2637 18.8623 100 18.8623C100.075 18.8623 100.137 18.9229 100.137 18.9982C100.138 19.0735 100.078 19.1355 100.003 19.1372C99.6958 19.144 99.2964 19.2473 98.9414 19.5301C98.5887 19.8112 98.271 20.2766 98.1352 21.0243Z" fill="#54BFF4" stroke="#54BFF4" stroke-width="0.274865" stroke-linejoin="round"/>
<path d="M12.1352 87.0243C12.1226 87.0937 12.0595 87.1423 11.9892 87.1368C11.9189 87.1312 11.8642 87.0733 11.8626 87.0028C11.8557 86.6909 11.7526 86.2198 11.4699 85.8305C11.192 85.4479 10.7363 85.1372 10 85.1372C9.92469 85.1372 9.86341 85.0766 9.86258 85.0013C9.86174 84.926 9.92166 84.864 9.99695 84.8624C10.3088 84.8554 10.78 84.7524 11.1692 84.4697C11.5519 84.1918 11.8626 83.7361 11.8626 82.9998C11.8626 82.9245 11.9232 82.8632 11.9985 82.8623C12.0738 82.8615 12.1357 82.9214 12.1374 82.9967C12.1443 83.3086 12.2474 83.7797 12.5301 84.169C12.808 84.5516 13.2637 84.8623 14 84.8623C14.0753 84.8623 14.1366 84.9229 14.1374 84.9982C14.1383 85.0735 14.0783 85.1355 14.0031 85.1372C13.6958 85.144 13.2964 85.2473 12.9414 85.5301C12.5887 85.8112 12.271 86.2766 12.1352 87.0243Z" fill="#54BFF4" stroke="#54BFF4" stroke-width="0.274865" stroke-linejoin="round"/>
<path fill-rule="evenodd" clip-rule="evenodd" d="M53.5279 27.7526C51.6283 27.7748 49.2661 28.2154 43.7919 29.5689C38.8721 30.7853 36.2222 31.2703 33.3055 31.4884C32.0329 31.5835 28.8525 31.6623 27.3229 31.6366L26.1413 31.6167L26.0108 32.1776C25.9391 32.4861 25.2273 37.4648 24.4291 43.2416L22.978 53.7447L23.6074 54.0208C24.5031 54.4137 25.6627 55.2314 27.5974 56.8346C29.8496 58.7008 30.2662 59.0273 31.2308 59.6818C32.657 60.6495 34.5626 61.4792 36.6394 62.0366C37.9245 62.3816 43.2017 63.0962 45.1643 63.1911C48.5516 63.3547 50.6423 63.5507 57.6717 64.3634C62.5374 64.9259 63.4008 64.992 64.1619 64.8598C65.2053 64.6785 66.7384 63.6888 67.345 62.8047C67.8677 62.0431 68.0695 61.4635 68.1674 60.4422C68.2375 59.7104 68.2247 59.4303 68.0954 58.862C67.8858 57.9409 67.4502 57.0498 66.7574 56.1251C64.7768 53.4814 62.2416 52.2476 55.3727 50.5846C52.7292 49.9446 52.1761 49.7938 51.3101 49.4765C49.9143 48.965 49.2467 48.3869 49.03 47.502C48.7844 46.4985 49.2012 44.9542 50.0887 43.5795C51.3086 41.6896 53.5655 39.8543 54.4988 39.9928C54.579 40.0047 55.0917 40.4439 55.6382 40.9687C57.1359 42.4074 58.3029 43.2279 59.7789 43.8801C60.729 44.3 61.4725 44.4586 62.1948 44.3957C62.9287 44.3317 63.3967 44.1726 64.7641 43.5224C66.6302 42.635 68.2987 42.1778 70.9851 41.8179C73.1161 41.5325 73.7708 41.3972 73.9818 41.199C74.4112 40.7953 74.2523 40.0892 73.5066 39.0891C72.2349 37.3835 68.0021 33.7371 64.8447 31.6273C62.4867 30.0518 60.6802 29.1583 58.7137 28.5953C57.6379 28.2874 54.2921 27.7437 53.5279 27.7526ZM15.302 27.1117C14.5422 27.2085 14.0518 27.4164 13.2853 27.9666C12.8007 28.3144 12.5924 28.526 12.4194 28.846C11.9001 29.8059 11.8439 30.1375 10.1979 41.9719L8.64873 53.1098L9.08076 53.9875C9.5631 54.9674 10.0687 55.5568 10.7648 55.9511C11.1718 56.1816 11.3188 56.2114 14.1488 56.6357C16.0054 56.914 17.2865 57.0722 17.5886 57.0602C18.7178 57.0156 19.6312 56.5154 20.5701 55.4275L21.1184 54.7922L22.6728 43.6901C23.5277 37.5839 24.243 32.2728 24.2624 31.8877C24.3099 30.9431 24.0419 30.0983 23.4325 29.2719C22.6187 28.1682 22.2567 28.0339 18.5288 27.4531C16.109 27.0759 15.8214 27.0456 15.302 27.1117ZM73.1354 43.9582C70.238 44.0018 67.1862 44.8019 64.8131 46.1402C63.6024 46.823 61.0378 48.9079 60.99 49.2482C60.9685 49.4008 62.1819 50.5757 63.0943 51.2857C63.1433 51.3239 63.3445 51.1785 63.5749 50.9385C64.8004 49.6611 66.9399 48.378 68.9305 47.7263C71.3351 46.9391 73.6063 46.7997 75.7748 47.3062C76.908 47.5709 78.3339 48.0742 79.1753 48.5066C81.0326 49.4608 82.8646 51.0824 83.9792 52.7587C86.6374 56.7561 86.9634 61.6564 84.8442 65.7598C83.6425 68.0863 81.303 70.3073 78.8102 71.4878C77.665 72.0302 75.6223 72.6015 74.3536 72.7343C73.4021 72.8339 70.2702 72.4661 69.0945 72.1168C67.2674 71.5738 65.1789 70.2374 63.4998 68.5368C62.7848 67.8127 61.7871 66.479 61.4568 65.8057C61.3221 65.5314 61.1877 65.3139 61.1579 65.3223C61.1282 65.3307 60.4738 65.6125 59.7036 65.9486C58.7697 66.3561 58.3219 66.5929 58.3589 66.6595C58.8055 67.462 59.7464 68.8514 60.3903 69.6595C61.9708 71.643 63.735 73.0467 66.1255 74.2229C67.4902 74.8945 68.349 75.1552 70.2513 75.4755C73.4138 76.008 75.3238 75.9168 77.9698 75.1073C82.2381 73.8016 85.7055 70.8982 87.6972 66.9623C88.3722 65.6283 88.758 64.4197 89.0633 62.682C89.5728 59.7832 89.4484 57.8034 88.5928 55.1883C86.8211 49.7731 82.4804 45.8171 76.7971 44.4379C75.7 44.1717 73.9743 43.9456 73.1354 43.9582Z" fill="url(#paint1_linear_352_46086)"/>
<path d="M71.2826 72.9728C78.6792 74.0123 85.5006 68.9831 86.5186 61.7396C87.5366 54.4962 82.3657 47.7815 74.9691 46.742C70.2708 46.0817 65.8046 47.87 62.9104 51.119C64.2065 51.9698 65.8539 53.7369 66.8555 54.8452C68.1473 56.2746 68.4669 57.6785 68.5978 58.2533C68.6171 58.3379 68.6323 58.4045 68.6458 58.4506C68.7517 58.8101 68.9784 60.5424 68.2445 62.198C67.5106 63.8536 64.9747 65.2559 63.8053 65.2552C63.7229 65.2551 63.6266 65.2545 63.5183 65.2538C62.9689 65.2504 62.1123 65.2451 61.2097 65.2994C61.1099 65.3543 61.0037 65.3978 60.8928 65.4317C62.7777 69.3575 66.5804 72.3119 71.2826 72.9728Z" fill="url(#paint2_linear_352_46086)"/>
<defs>
<radialGradient id="paint0_radial_352_46086" cx="0" cy="0" r="1" gradientUnits="userSpaceOnUse" gradientTransform="translate(45.5502 97.8714) rotate(1.22266) scale(52.892 10.5406)">
<stop offset="0.0001" stop-color="#BFE3EB"/>
<stop offset="1" stop-color="white" stop-opacity="0"/>
</radialGradient>
<linearGradient id="paint1_linear_352_46086" x1="14.5268" y1="29.2492" x2="52.9041" y2="66.6007" gradientUnits="userSpaceOnUse">
<stop stop-color="#FFCBB5"/>
<stop offset="1" stop-color="#ED1C24"/>
</linearGradient>
<linearGradient id="paint2_linear_352_46086" x1="14.5268" y1="29.2492" x2="52.9041" y2="66.6007" gradientUnits="userSpaceOnUse">
<stop stop-color="#FFCBB5"/>
<stop offset="1" stop-color="#ED1C24"/>
</linearGradient>
</defs>
</svg>
