<svg width="17" height="16" viewBox="0 0 17 16" fill="none" xmlns="http://www.w3.org/2000/svg">
<path d="M8.50016 1.3335C12.1821 1.3335 15.1668 4.31826 15.1668 8.00016C15.1668 11.6821 12.1821 14.6668 8.50016 14.6668C4.81826 14.6668 1.8335 11.6821 1.8335 8.00016C1.8335 4.31826 4.81826 1.3335 8.50016 1.3335ZM10.8537 5.64661L10.7976 5.5982C10.6236 5.4691 10.3848 5.4675 10.2092 5.59342L10.1466 5.64661L8.50016 7.29283L6.85372 5.64661L6.79764 5.5982C6.62365 5.4691 6.38484 5.4675 6.20924 5.59342L6.14661 5.64661L6.0982 5.70269C5.9691 5.87668 5.9675 6.11549 6.09342 6.29108L6.14661 6.35372L7.79283 8.00016L6.14661 9.64661L6.0982 9.70269C5.9691 9.87668 5.9675 10.1155 6.09342 10.2911L6.14661 10.3537L6.20269 10.4021C6.37668 10.5312 6.61549 10.5328 6.79108 10.4069L6.85372 10.3537L8.50016 8.7075L10.1466 10.3537L10.2027 10.4021C10.3767 10.5312 10.6155 10.5328 10.7911 10.4069L10.8537 10.3537L10.9021 10.2976C11.0312 10.1236 11.0328 9.88484 10.9069 9.70924L10.8537 9.64661L9.2075 8.00016L10.8537 6.35372L10.9021 6.29764C11.0312 6.12365 11.0328 5.88484 10.9069 5.70924L10.8537 5.64661L10.7976 5.5982L10.8537 5.64661Z" fill="#FA474D"/>
</svg>
