<svg width="40" height="40" viewBox="0 0 40 40" fill="none" xmlns="http://www.w3.org/2000/svg">
<path d="M3.33337 11.2499C3.33337 9.63909 4.63921 8.33325 6.25004 8.33325H28.75C30.3609 8.33325 31.6667 9.63909 31.6667 11.2499V25.4166C31.6667 27.0274 30.3609 28.3333 28.75 28.3333H6.25004C4.63921 28.3333 3.33337 27.0274 3.33337 25.4166V11.2499ZM8.33337 10.4166V12.0833C8.33337 12.7736 7.77373 13.3333 7.08337 13.3333H5.41671V15.8333H7.08337C9.15444 15.8333 10.8334 14.1543 10.8334 12.0833V10.4166H8.33337ZM17.5 22.4999C19.5711 22.4999 21.25 20.821 21.25 18.7499C21.25 16.6789 19.5711 14.9999 17.5 14.9999C15.429 14.9999 13.75 16.6789 13.75 18.7499C13.75 20.821 15.429 22.4999 17.5 22.4999ZM5.41671 23.3333H7.08337C7.77373 23.3333 8.33337 23.8929 8.33337 24.5833V26.2499H10.8334V24.5833C10.8334 22.5122 9.15444 20.8333 7.08337 20.8333H5.41671V23.3333ZM26.6667 24.5833C26.6667 23.8929 27.2264 23.3333 27.9167 23.3333H29.5834V20.8333H27.9167C25.8456 20.8333 24.1667 22.5122 24.1667 24.5833V26.2499H26.6667V24.5833ZM26.6667 12.0833V10.4166H24.1667V12.0833C24.1667 14.1543 25.8456 15.8333 27.9167 15.8333H29.5834V13.3333H27.9167C27.2264 13.3333 26.6667 12.7736 26.6667 12.0833ZM7.33562 30.8333C8.20014 32.3278 9.816 33.3333 11.6667 33.3333H28.75C33.1223 33.3333 36.6667 29.7888 36.6667 25.4166V16.6666C36.6667 14.8159 35.6612 13.2 34.1667 12.3355V25.4166C34.1667 28.4081 31.7416 30.8333 28.75 30.8333H7.33562Z" fill="#9BDEF7"/>
</svg>
