<svg width="90" height="36" viewBox="0 0 90 36" fill="none" xmlns="http://www.w3.org/2000/svg">
<path d="M12.2483 11.3279V14.1978C12.2483 14.6461 12.6117 15.0096 13.0601 15.0096H15.93C16.3783 15.0096 16.7418 14.6461 16.7418 14.1978C16.7418 13.7495 16.3783 13.3861 15.93 13.3861L15.2628 13.3852C17.4452 12.0798 20.3147 12.3671 22.1947 14.2471C24.4137 16.4661 24.4137 20.0639 22.1947 22.2829C19.9756 24.502 16.3779 24.502 14.1588 22.2829C12.8082 20.9324 12.2429 19.0255 12.5976 17.1841C12.6824 16.7439 12.3943 16.3183 11.9541 16.2335C11.5139 16.1486 11.0882 16.4368 11.0034 16.877C10.5478 19.2419 11.2752 21.6953 13.0108 23.4309C15.8639 26.284 20.4896 26.284 23.3427 23.4309C26.1957 20.5779 26.1957 15.9521 23.3427 13.0991C20.7615 10.5179 16.7295 10.2719 13.8718 12.3611L13.8718 11.3279C13.8718 10.8795 13.5084 10.5161 13.0601 10.5161C12.6117 10.5161 12.2483 10.8795 12.2483 11.3279Z" fill="#003366"/>
<path d="M33.3758 13.0469H36.8963C37.6528 13.0469 38.2977 13.1608 38.8309 13.3887C39.3641 13.6165 39.772 13.9538 40.0545 14.4004C40.3416 14.8424 40.4852 15.3893 40.4852 16.041C40.4852 16.5378 40.394 16.9753 40.2118 17.3535C40.0295 17.7318 39.772 18.0508 39.4393 18.3105C39.1066 18.5658 38.7101 18.764 38.2498 18.9053L37.7303 19.1582H34.5653L34.5516 17.7979H36.9237C37.3338 17.7979 37.6756 17.7249 37.9491 17.5791C38.2225 17.4333 38.4276 17.235 38.5643 16.9844C38.7056 16.7292 38.7762 16.4421 38.7762 16.123C38.7762 15.7767 38.7079 15.4759 38.5711 15.2207C38.439 14.9609 38.2339 14.7627 37.9559 14.626C37.6779 14.4847 37.3247 14.4141 36.8963 14.4141H35.0916V23H33.3758V13.0469ZM39.0565 23L36.7186 18.5293L38.5164 18.5225L40.8885 22.9111V23H39.0565ZM45.5709 23.1367C45.024 23.1367 44.5295 23.0479 44.0875 22.8701C43.65 22.6878 43.2763 22.4349 42.9664 22.1113C42.661 21.7878 42.4263 21.4072 42.2623 20.9697C42.0982 20.5322 42.0162 20.0605 42.0162 19.5547V19.2812C42.0162 18.7025 42.1005 18.1784 42.2691 17.709C42.4377 17.2396 42.6724 16.8385 42.9732 16.5059C43.274 16.1686 43.6295 15.9111 44.0396 15.7334C44.4498 15.5557 44.8941 15.4668 45.3726 15.4668C45.9013 15.4668 46.3638 15.5557 46.7603 15.7334C47.1568 15.9111 47.4849 16.1618 47.7447 16.4854C48.009 16.8044 48.205 17.1849 48.3326 17.627C48.4647 18.069 48.5308 18.5566 48.5308 19.0898V19.7939H42.816V18.6113H46.9039V18.4814C46.8948 18.1852 46.8355 17.9072 46.7261 17.6475C46.6213 17.3877 46.4595 17.1781 46.2408 17.0186C46.022 16.859 45.7304 16.7793 45.3658 16.7793C45.0923 16.7793 44.8485 16.8385 44.6343 16.957C44.4247 17.071 44.2492 17.2373 44.108 17.4561C43.9667 17.6748 43.8573 17.9391 43.7798 18.249C43.7069 18.5544 43.6705 18.8984 43.6705 19.2812V19.5547C43.6705 19.8783 43.7138 20.179 43.8004 20.457C43.8915 20.7305 44.0237 20.9697 44.1968 21.1748C44.37 21.3799 44.5796 21.5417 44.8257 21.6602C45.0718 21.7741 45.3521 21.8311 45.6666 21.8311C46.063 21.8311 46.4162 21.7513 46.7261 21.5918C47.036 21.4323 47.3049 21.2067 47.5328 20.915L48.4009 21.7559C48.2414 21.9883 48.0341 22.2116 47.7789 22.4258C47.5237 22.6354 47.2115 22.8063 46.8423 22.9385C46.4778 23.0706 46.0539 23.1367 45.5709 23.1367ZM53.4114 18.0918V19.4043H49.7952V18.0918H53.4114ZM59.2832 20.9971C59.2832 20.833 59.2422 20.6849 59.1602 20.5527C59.0781 20.416 58.9209 20.293 58.6885 20.1836C58.4606 20.0742 58.1234 19.974 57.6768 19.8828C57.2848 19.7962 56.9248 19.6937 56.5967 19.5752C56.2731 19.4521 55.9951 19.304 55.7627 19.1309C55.5303 18.9577 55.3503 18.7526 55.2227 18.5156C55.0951 18.2786 55.0312 18.0052 55.0312 17.6953C55.0312 17.3945 55.0973 17.1097 55.2295 16.8408C55.3617 16.5719 55.5508 16.335 55.7969 16.1299C56.043 15.9248 56.3415 15.763 56.6924 15.6445C57.0479 15.526 57.4443 15.4668 57.8818 15.4668C58.5016 15.4668 59.0326 15.5716 59.4746 15.7812C59.9212 15.9863 60.263 16.2666 60.5 16.6221C60.737 16.973 60.8555 17.3695 60.8555 17.8115H59.208C59.208 17.6156 59.1579 17.4333 59.0576 17.2646C58.9619 17.0915 58.8161 16.9525 58.6201 16.8477C58.4242 16.7383 58.1781 16.6836 57.8818 16.6836C57.5993 16.6836 57.3646 16.7292 57.1777 16.8203C56.9954 16.9069 56.8587 17.0208 56.7676 17.1621C56.681 17.3034 56.6377 17.4583 56.6377 17.627C56.6377 17.75 56.6605 17.8617 56.7061 17.9619C56.7562 18.0576 56.8382 18.1465 56.9521 18.2285C57.0661 18.306 57.221 18.3789 57.417 18.4473C57.6175 18.5156 57.8682 18.5817 58.1689 18.6455C58.734 18.764 59.2194 18.9167 59.625 19.1035C60.0352 19.2858 60.3496 19.5228 60.5684 19.8145C60.7871 20.1016 60.8965 20.4661 60.8965 20.9082C60.8965 21.2363 60.8258 21.5371 60.6846 21.8105C60.5479 22.0794 60.3473 22.3141 60.083 22.5146C59.8187 22.7106 59.502 22.8633 59.1328 22.9727C58.7682 23.082 58.3581 23.1367 57.9023 23.1367C57.2324 23.1367 56.665 23.0182 56.2002 22.7812C55.7354 22.5397 55.3822 22.2321 55.1406 21.8584C54.9036 21.4801 54.7852 21.0882 54.7852 20.6826H56.3779C56.3962 20.988 56.4805 21.2318 56.6309 21.4141C56.7858 21.5918 56.9772 21.7217 57.2051 21.8037C57.4375 21.8812 57.6768 21.9199 57.9229 21.9199C58.2191 21.9199 58.4674 21.8812 58.668 21.8037C58.8685 21.7217 59.0212 21.6123 59.126 21.4756C59.2308 21.3343 59.2832 21.1748 59.2832 20.9971ZM64.3825 15.6035V23H62.7282V15.6035H64.3825ZM62.6189 13.6621C62.6189 13.4115 62.7009 13.2041 62.865 13.04C63.0336 12.8714 63.266 12.7871 63.5622 12.7871C63.8539 12.7871 64.084 12.8714 64.2527 13.04C64.4213 13.2041 64.5056 13.4115 64.5056 13.6621C64.5056 13.9082 64.4213 14.1133 64.2527 14.2773C64.084 14.4414 63.8539 14.5234 63.5622 14.5234C63.266 14.5234 63.0336 14.4414 62.865 14.2773C62.7009 14.1133 62.6189 13.9082 62.6189 13.6621ZM71.2045 15.6035H72.7016V22.7949C72.7016 23.4603 72.5603 24.0254 72.2778 24.4902C71.9952 24.9551 71.601 25.3083 71.0952 25.5498C70.5893 25.7959 70.0037 25.9189 69.3383 25.9189C69.0558 25.9189 68.7413 25.8779 68.395 25.7959C68.0532 25.7139 67.7205 25.5817 67.3969 25.3994C67.0779 25.2217 66.8113 24.987 66.5971 24.6953L67.3696 23.7246C67.6339 24.0391 67.9256 24.2692 68.2446 24.415C68.5636 24.5609 68.8985 24.6338 69.2495 24.6338C69.6277 24.6338 69.949 24.5632 70.2133 24.4219C70.4822 24.2852 70.6896 24.0824 70.8354 23.8135C70.9812 23.5446 71.0541 23.2165 71.0541 22.8291V17.2783L71.2045 15.6035ZM66.1801 19.3838V19.2402C66.1801 18.6797 66.2485 18.1693 66.3852 17.709C66.5219 17.2441 66.7179 16.8454 66.9731 16.5127C67.2283 16.1755 67.5382 15.918 67.9028 15.7402C68.2674 15.5579 68.6798 15.4668 69.1401 15.4668C69.6186 15.4668 70.0265 15.5534 70.3637 15.7266C70.7055 15.8997 70.9903 16.1481 71.2182 16.4717C71.4461 16.7907 71.6238 17.1735 71.7514 17.6201C71.8836 18.0622 71.9816 18.5544 72.0454 19.0967V19.5547C71.9861 20.0833 71.8858 20.5664 71.7446 21.0039C71.6033 21.4414 71.4164 21.8197 71.184 22.1387C70.9516 22.4577 70.6645 22.7038 70.3227 22.877C69.9855 23.0501 69.5867 23.1367 69.1264 23.1367C68.6752 23.1367 68.2674 23.0433 67.9028 22.8564C67.5427 22.6696 67.2329 22.4076 66.9731 22.0703C66.7179 21.7331 66.5219 21.3366 66.3852 20.8809C66.2485 20.4206 66.1801 19.9215 66.1801 19.3838ZM67.8276 19.2402V19.3838C67.8276 19.721 67.8595 20.0355 67.9233 20.3271C67.9916 20.6188 68.0942 20.8763 68.2309 21.0996C68.3722 21.3184 68.5499 21.4915 68.7641 21.6191C68.9829 21.7422 69.2403 21.8037 69.5366 21.8037C69.9239 21.8037 70.2407 21.7217 70.4868 21.5576C70.7374 21.3936 70.9288 21.1725 71.061 20.8945C71.1977 20.612 71.2934 20.2975 71.3481 19.9512V18.7139C71.3207 18.445 71.2638 18.1943 71.1772 17.9619C71.0952 17.7295 70.9835 17.5267 70.8422 17.3535C70.701 17.1758 70.5232 17.0391 70.309 16.9434C70.0948 16.8431 69.8419 16.793 69.5502 16.793C69.254 16.793 68.9965 16.8568 68.7778 16.9844C68.559 17.112 68.379 17.2874 68.2377 17.5107C68.101 17.734 67.9985 17.9938 67.9301 18.29C67.8618 18.5863 67.8276 18.903 67.8276 19.2402ZM76.3244 17.1826V23H74.6769V15.6035H76.2287L76.3244 17.1826ZM76.0304 19.0283L75.4972 19.0215C75.5018 18.4974 75.5747 18.0166 75.716 17.5791C75.8618 17.1416 76.0623 16.7656 76.3175 16.4512C76.5773 16.1367 76.8872 15.8952 77.2472 15.7266C77.6073 15.5534 78.0083 15.4668 78.4504 15.4668C78.8058 15.4668 79.1271 15.5169 79.4142 15.6172C79.7059 15.7129 79.9543 15.8701 80.1593 16.0889C80.369 16.3076 80.5285 16.5924 80.6379 16.9434C80.7472 17.2897 80.8019 17.7158 80.8019 18.2217V23H79.1476V18.2148C79.1476 17.8594 79.0952 17.5791 78.9904 17.374C78.8901 17.1644 78.742 17.0163 78.5461 16.9297C78.3546 16.8385 78.1154 16.793 77.8283 16.793C77.5457 16.793 77.2928 16.8522 77.0695 16.9707C76.8462 17.0892 76.6571 17.251 76.5021 17.4561C76.3517 17.6611 76.2355 17.8981 76.1535 18.167C76.0714 18.4359 76.0304 18.723 76.0304 19.0283Z" fill="#0D4582"/>
</svg>
