<svg width="8" height="8" viewBox="0 0 8 8" fill="none" xmlns="http://www.w3.org/2000/svg">
<g id="Vector">
<path d="M2.61113 2.02174C2.61113 2.02174 3.30562 0.33291 4.00012 0.33291C4.61615 0.33291 5.62059 2.263 5.62059 2.263C5.62059 2.263 7.52058 2.54301 7.70407 3.22804C7.7883 3.54251 6.54658 5.15813 6.54658 5.15813L6.31508 7.812L4.00012 7.08822C4.00012 7.08822 2.14814 7.93372 1.68515 7.57074C1.18496 7.17861 1.45365 5.15813 1.45365 5.15813C1.45365 5.15813 0.296165 3.71057 0.296165 2.98678C0.296165 2.50426 2.61113 2.02174 2.61113 2.02174Z" fill="#003366"/>
<path d="M7.50778 2.53829L5.65702 1.96973L4.5663 0.310904C4.43831 0.116252 4.22656 0 4.00004 0C3.77351 0 3.56177 0.116192 3.43378 0.310904L2.34305 1.96973L0.492293 2.53829C0.275136 2.60498 0.103632 2.77888 0.0336116 3.00338C-0.0363328 3.22794 0.004281 3.47365 0.142436 3.66079L1.31898 5.2544L1.2659 7.26445C1.26062 7.45928 1.32939 7.64322 1.45924 7.78235C1.64329 7.97958 1.93143 8.05092 2.18207 7.95819L3.99997 7.28448L5.81787 7.95819C5.89271 7.98591 5.97035 8 6.04866 8C6.23215 8 6.41159 7.92071 6.54069 7.78229C6.67054 7.64322 6.73918 7.45931 6.73404 7.26452L6.68096 5.25447L7.85756 3.66079C7.99572 3.47365 8.03634 3.22795 7.96639 3.00338C7.89632 2.77895 7.72498 2.60497 7.50778 2.53829ZM7.50548 3.37826L6.28064 5.03708C6.24945 5.07935 6.23327 5.13137 6.23457 5.18468L6.28976 7.27712C6.29162 7.34575 6.26756 7.41044 6.22211 7.4591C6.15656 7.52941 6.05705 7.55487 5.96688 7.52153L4.07453 6.82023C4.05041 6.81131 4.02517 6.80678 4.00006 6.80678C3.97489 6.80678 3.94977 6.81124 3.92559 6.82023L2.03324 7.52153C1.94364 7.55468 1.84344 7.52928 1.77802 7.4591C1.73257 7.41044 1.70857 7.34581 1.71037 7.27705L1.76556 5.18462C1.76698 5.13137 1.75074 5.07922 1.71948 5.03702L0.494767 3.37819C0.445347 3.31124 0.431395 3.22678 0.456384 3.14651C0.481435 3.06619 0.540405 3.00641 0.618109 2.98256L2.54459 2.39068C2.59363 2.37556 2.63617 2.34344 2.66507 2.29943L3.80043 0.572942C3.84619 0.503278 3.91893 0.46334 3.99997 0.46334C4.08101 0.46334 4.15375 0.503278 4.1995 0.572942L5.33487 2.2996C5.36376 2.34361 5.40636 2.37573 5.45535 2.39085L7.38182 2.98273C7.45952 3.00664 7.51843 3.06641 7.54355 3.14668C7.56879 3.22694 7.55484 3.31131 7.50548 3.37826Z" fill="#003366"/>
</g>
</svg>
