<svg width="203" height="40" viewBox="0 0 203 40" fill="none" xmlns="http://www.w3.org/2000/svg">
<rect width="203" height="40" rx="12" fill="#EBF8FA"/>
<path d="M22.6844 15.0469H24.3934V21.6982C24.3934 22.4548 24.2293 23.0882 23.9012 23.5986C23.573 24.109 23.1264 24.4941 22.5613 24.7539C22.0008 25.0091 21.3742 25.1367 20.6814 25.1367C19.9659 25.1367 19.3279 25.0091 18.7674 24.7539C18.2068 24.4941 17.7648 24.109 17.4412 23.5986C17.1222 23.0882 16.9627 22.4548 16.9627 21.6982V15.0469H18.6717V21.6982C18.6717 22.1768 18.7537 22.571 18.9178 22.8809C19.0818 23.1862 19.3143 23.4118 19.615 23.5576C19.9158 23.7035 20.2713 23.7764 20.6814 23.7764C21.0916 23.7764 21.4448 23.7035 21.741 23.5576C22.0418 23.4118 22.2742 23.1862 22.4383 22.8809C22.6023 22.571 22.6844 22.1768 22.6844 21.6982V15.0469ZM28.0298 19.0254V27.8438H26.3823V17.6035H27.8999L28.0298 19.0254ZM32.8491 21.2334V21.377C32.8491 21.9147 32.7853 22.4137 32.6577 22.874C32.5347 23.3298 32.3501 23.7285 32.104 24.0703C31.8625 24.4076 31.564 24.6696 31.2085 24.8564C30.853 25.0433 30.4429 25.1367 29.978 25.1367C29.5178 25.1367 29.1144 25.0524 28.7681 24.8838C28.4263 24.7106 28.1369 24.4668 27.8999 24.1523C27.6629 23.8379 27.4715 23.4688 27.3257 23.0449C27.1844 22.6165 27.0842 22.1471 27.0249 21.6367V21.083C27.0842 20.5407 27.1844 20.0485 27.3257 19.6064C27.4715 19.1644 27.6629 18.7839 27.8999 18.4648C28.1369 18.1458 28.4263 17.8997 28.7681 17.7266C29.1099 17.5534 29.5086 17.4668 29.9644 17.4668C30.4292 17.4668 30.8417 17.5579 31.2017 17.7402C31.5617 17.918 31.8648 18.1732 32.1109 18.5059C32.3569 18.834 32.5415 19.2305 32.6646 19.6953C32.7876 20.1556 32.8491 20.6683 32.8491 21.2334ZM31.2017 21.377V21.2334C31.2017 20.8916 31.1698 20.5749 31.106 20.2832C31.0422 19.987 30.9419 19.7272 30.8052 19.5039C30.6685 19.2806 30.493 19.1074 30.2788 18.9844C30.0692 18.8568 29.8163 18.793 29.52 18.793C29.2284 18.793 28.9777 18.8431 28.7681 18.9434C28.5584 19.0391 28.383 19.1735 28.2417 19.3467C28.1004 19.5199 27.9911 19.7227 27.9136 19.9551C27.8361 20.1829 27.7814 20.4313 27.7495 20.7002V22.0264C27.8042 22.3545 27.8976 22.6553 28.0298 22.9287C28.162 23.2021 28.3488 23.4209 28.5903 23.585C28.8364 23.7445 29.1509 23.8242 29.5337 23.8242C29.8299 23.8242 30.0829 23.7604 30.2925 23.6328C30.5021 23.5052 30.673 23.3298 30.8052 23.1064C30.9419 22.8786 31.0422 22.6165 31.106 22.3203C31.1698 22.0241 31.2017 21.7096 31.2017 21.377ZM36.2942 14.5V25H34.6399V14.5H36.2942ZM38.0644 21.3838V21.2266C38.0644 20.6934 38.1419 20.1989 38.2968 19.7432C38.4518 19.2829 38.6751 18.8841 38.9668 18.5469C39.263 18.2051 39.623 17.9408 40.0468 17.7539C40.4752 17.5625 40.9583 17.4668 41.4961 17.4668C42.0384 17.4668 42.5214 17.5625 42.9453 17.7539C43.3737 17.9408 43.736 18.2051 44.0322 18.5469C44.3284 18.8841 44.554 19.2829 44.7089 19.7432C44.8639 20.1989 44.9414 20.6934 44.9414 21.2266V21.3838C44.9414 21.917 44.8639 22.4115 44.7089 22.8672C44.554 23.3229 44.3284 23.7217 44.0322 24.0635C43.736 24.4007 43.3759 24.665 42.9521 24.8564C42.5283 25.0433 42.0475 25.1367 41.5097 25.1367C40.9674 25.1367 40.4821 25.0433 40.0537 24.8564C39.6298 24.665 39.2698 24.4007 38.9736 24.0635C38.6774 23.7217 38.4518 23.3229 38.2968 22.8672C38.1419 22.4115 38.0644 21.917 38.0644 21.3838ZM39.7119 21.2266V21.3838C39.7119 21.7165 39.7461 22.0309 39.8144 22.3271C39.8828 22.6234 39.9899 22.8831 40.1357 23.1064C40.2815 23.3298 40.4684 23.5052 40.6962 23.6328C40.9241 23.7604 41.1953 23.8242 41.5097 23.8242C41.8151 23.8242 42.0794 23.7604 42.3027 23.6328C42.5306 23.5052 42.7174 23.3298 42.8632 23.1064C43.0091 22.8831 43.1162 22.6234 43.1845 22.3271C43.2574 22.0309 43.2939 21.7165 43.2939 21.3838V21.2266C43.2939 20.8984 43.2574 20.5885 43.1845 20.2969C43.1162 20.0007 43.0068 19.7386 42.8564 19.5107C42.7106 19.2829 42.5237 19.1051 42.2959 18.9775C42.0725 18.8454 41.8059 18.7793 41.4961 18.7793C41.1862 18.7793 40.9173 18.8454 40.6894 18.9775C40.4661 19.1051 40.2815 19.2829 40.1357 19.5107C39.9899 19.7386 39.8828 20.0007 39.8144 20.2969C39.7461 20.5885 39.7119 20.8984 39.7119 21.2266ZM50.7721 23.5166V19.9893C50.7721 19.7249 50.7243 19.4971 50.6286 19.3057C50.5329 19.1143 50.3871 18.9661 50.1911 18.8613C49.9997 18.7565 49.7581 18.7041 49.4665 18.7041C49.1976 18.7041 48.9652 18.7497 48.7692 18.8408C48.5733 18.932 48.4206 19.055 48.3112 19.21C48.2018 19.3649 48.1471 19.5404 48.1471 19.7363H46.5065C46.5065 19.4447 46.5772 19.1621 46.7184 18.8887C46.8597 18.6152 47.0648 18.3714 47.3337 18.1572C47.6025 17.943 47.9238 17.7744 48.2975 17.6514C48.6712 17.5283 49.0905 17.4668 49.5553 17.4668C50.1113 17.4668 50.6035 17.5602 51.0319 17.7471C51.4649 17.9339 51.8044 18.2165 52.0505 18.5947C52.3011 18.9684 52.4264 19.4378 52.4264 20.0029V23.291C52.4264 23.6283 52.4492 23.9313 52.4948 24.2002C52.5449 24.4645 52.6156 24.6947 52.7067 24.8906V25H51.0182C50.9408 24.8223 50.8792 24.5967 50.8337 24.3232C50.7927 24.0452 50.7721 23.7764 50.7721 23.5166ZM51.0114 20.502L51.0251 21.5205H49.8425C49.5371 21.5205 49.2682 21.5501 49.0358 21.6094C48.8034 21.6641 48.6097 21.7461 48.4548 21.8555C48.2998 21.9648 48.1836 22.097 48.1061 22.252C48.0287 22.4069 47.9899 22.5824 47.9899 22.7783C47.9899 22.9743 48.0355 23.1543 48.1266 23.3184C48.2178 23.4779 48.3499 23.6032 48.5231 23.6943C48.7009 23.7855 48.915 23.8311 49.1657 23.8311C49.5029 23.8311 49.7969 23.7627 50.0475 23.626C50.3027 23.4847 50.5033 23.3138 50.6491 23.1133C50.7949 22.9082 50.8724 22.7145 50.8815 22.5322L51.4147 23.2637C51.36 23.4505 51.2666 23.651 51.1345 23.8652C51.0023 24.0794 50.8291 24.2845 50.6149 24.4805C50.4053 24.6719 50.1524 24.8291 49.8561 24.9521C49.5645 25.0752 49.2272 25.1367 48.8444 25.1367C48.3613 25.1367 47.9307 25.041 47.5524 24.8496C47.1742 24.6536 46.8779 24.3916 46.6637 24.0635C46.4496 23.7308 46.3425 23.3548 46.3425 22.9355C46.3425 22.5436 46.4154 22.1973 46.5612 21.8965C46.7116 21.5911 46.9303 21.3359 47.2175 21.1309C47.5091 20.9258 47.8646 20.7708 48.2839 20.666C48.7031 20.5566 49.1817 20.502 49.7194 20.502H51.0114ZM58.9408 23.4688V14.5H60.5951V25H59.098L58.9408 23.4688ZM54.1283 21.3838V21.2402C54.1283 20.6797 54.1944 20.1693 54.3266 19.709C54.4587 19.2441 54.6501 18.8454 54.9008 18.5127C55.1514 18.1755 55.4568 17.918 55.8168 17.7402C56.1768 17.5579 56.5824 17.4668 57.0336 17.4668C57.4802 17.4668 57.8721 17.5534 58.2094 17.7266C58.5466 17.8997 58.8337 18.1481 59.0707 18.4717C59.3077 18.7907 59.4968 19.1735 59.6381 19.6201C59.7794 20.0622 59.8796 20.5544 59.9389 21.0967V21.5547C59.8796 22.0833 59.7794 22.5664 59.6381 23.0039C59.4968 23.4414 59.3077 23.8197 59.0707 24.1387C58.8337 24.4577 58.5443 24.7038 58.2025 24.877C57.8653 25.0501 57.4711 25.1367 57.0199 25.1367C56.5733 25.1367 56.17 25.0433 55.81 24.8564C55.4545 24.6696 55.1514 24.4076 54.9008 24.0703C54.6501 23.7331 54.4587 23.3366 54.3266 22.8809C54.1944 22.4206 54.1283 21.9215 54.1283 21.3838ZM55.7758 21.2402V21.3838C55.7758 21.721 55.8054 22.0355 55.8646 22.3271C55.9284 22.6188 56.0264 22.8763 56.1586 23.0996C56.2908 23.3184 56.4617 23.4915 56.6713 23.6191C56.8855 23.7422 57.1407 23.8037 57.4369 23.8037C57.8106 23.8037 58.1182 23.7217 58.3598 23.5576C58.6013 23.3936 58.7904 23.1725 58.9271 22.8945C59.0684 22.612 59.1641 22.2975 59.2143 21.9512V20.7139C59.1869 20.445 59.1299 20.1943 59.0434 19.9619C58.9613 19.7295 58.8497 19.5267 58.7084 19.3535C58.5671 19.1758 58.3917 19.0391 58.182 18.9434C57.977 18.8431 57.7331 18.793 57.4506 18.793C57.1498 18.793 56.8946 18.8568 56.685 18.9844C56.4753 19.112 56.3021 19.2874 56.1654 19.5107C56.0333 19.734 55.9353 19.9938 55.8715 20.29C55.8077 20.5863 55.7758 20.903 55.7758 21.2402ZM68.5106 24.1934L70.5203 17.6035H72.284L69.3172 26.1279C69.2489 26.3102 69.16 26.5085 69.0506 26.7227C68.9412 26.9368 68.7977 27.1396 68.62 27.3311C68.4468 27.527 68.2303 27.6842 67.9705 27.8027C67.7108 27.9258 67.3963 27.9873 67.0272 27.9873C66.8814 27.9873 66.7401 27.9736 66.6034 27.9463C66.4712 27.9235 66.3459 27.8984 66.2274 27.8711L66.2205 26.6133C66.2661 26.6178 66.3208 26.6224 66.3846 26.627C66.453 26.6315 66.5077 26.6338 66.5487 26.6338C66.8221 26.6338 67.05 26.5996 67.2323 26.5312C67.4146 26.4674 67.5627 26.3626 67.6766 26.2168C67.7951 26.071 67.8953 25.875 67.9774 25.6289L68.5106 24.1934ZM67.3758 17.6035L69.1327 23.1406L69.4266 24.877L68.285 25.1709L65.5985 17.6035H67.3758ZM73.0836 21.3838V21.2266C73.0836 20.6934 73.161 20.1989 73.316 19.7432C73.4709 19.2829 73.6942 18.8841 73.9859 18.5469C74.2821 18.2051 74.6421 17.9408 75.066 17.7539C75.4944 17.5625 75.9774 17.4668 76.5152 17.4668C77.0575 17.4668 77.5406 17.5625 77.9644 17.7539C78.3928 17.9408 78.7551 18.2051 79.0513 18.5469C79.3476 18.8841 79.5731 19.2829 79.7281 19.7432C79.883 20.1989 79.9605 20.6934 79.9605 21.2266V21.3838C79.9605 21.917 79.883 22.4115 79.7281 22.8672C79.5731 23.3229 79.3476 23.7217 79.0513 24.0635C78.7551 24.4007 78.3951 24.665 77.9712 24.8564C77.5474 25.0433 77.0666 25.1367 76.5289 25.1367C75.9865 25.1367 75.5012 25.0433 75.0728 24.8564C74.649 24.665 74.289 24.4007 73.9927 24.0635C73.6965 23.7217 73.4709 23.3229 73.316 22.8672C73.161 22.4115 73.0836 21.917 73.0836 21.3838ZM74.731 21.2266V21.3838C74.731 21.7165 74.7652 22.0309 74.8336 22.3271C74.9019 22.6234 75.009 22.8831 75.1548 23.1064C75.3007 23.3298 75.4875 23.5052 75.7154 23.6328C75.9433 23.7604 76.2144 23.8242 76.5289 23.8242C76.8342 23.8242 77.0985 23.7604 77.3218 23.6328C77.5497 23.5052 77.7365 23.3298 77.8824 23.1064C78.0282 22.8831 78.1353 22.6234 78.2037 22.3271C78.2766 22.0309 78.313 21.7165 78.313 21.3838V21.2266C78.313 20.8984 78.2766 20.5885 78.2037 20.2969C78.1353 20.0007 78.0259 19.7386 77.8755 19.5107C77.7297 19.2829 77.5429 19.1051 77.315 18.9775C77.0917 18.8454 76.8251 18.7793 76.5152 18.7793C76.2053 18.7793 75.9364 18.8454 75.7086 18.9775C75.4852 19.1051 75.3007 19.2829 75.1548 19.5107C75.009 19.7386 74.9019 20.0007 74.8336 20.2969C74.7652 20.5885 74.731 20.8984 74.731 21.2266ZM86.0716 23.2568V17.6035H87.7259V25H86.1673L86.0716 23.2568ZM86.304 21.7188L86.8577 21.7051C86.8577 22.2018 86.803 22.6598 86.6936 23.0791C86.5843 23.4938 86.4156 23.8561 86.1878 24.166C85.9599 24.4714 85.6682 24.7106 85.3128 24.8838C84.9573 25.0524 84.5312 25.1367 84.0344 25.1367C83.6744 25.1367 83.344 25.0843 83.0432 24.9795C82.7425 24.8747 82.4827 24.7129 82.2639 24.4941C82.0497 24.2754 81.8834 23.9906 81.7649 23.6396C81.6464 23.2887 81.5872 22.8695 81.5872 22.3818V17.6035H83.2346V22.3955C83.2346 22.6644 83.2665 22.89 83.3303 23.0723C83.3941 23.25 83.4807 23.3936 83.5901 23.5029C83.6995 23.6123 83.8271 23.6898 83.9729 23.7354C84.1188 23.7809 84.2737 23.8037 84.4378 23.8037C84.9072 23.8037 85.2763 23.7126 85.5452 23.5303C85.8186 23.3434 86.0123 23.0928 86.1262 22.7783C86.2447 22.4639 86.304 22.1107 86.304 21.7188ZM91.3486 19.0117V25H89.7012V17.6035H91.2734L91.3486 19.0117ZM93.6113 17.5557L93.5977 19.0869C93.4974 19.0687 93.388 19.055 93.2695 19.0459C93.1556 19.0368 93.0417 19.0322 92.9277 19.0322C92.6452 19.0322 92.3968 19.0732 92.1826 19.1553C91.9684 19.2327 91.7884 19.3467 91.6426 19.4971C91.5013 19.6429 91.3919 19.8206 91.3145 20.0303C91.237 20.2399 91.1914 20.4746 91.1777 20.7344L90.8018 20.7617C90.8018 20.2969 90.8473 19.8662 90.9385 19.4697C91.0296 19.0732 91.1663 18.7246 91.3486 18.4238C91.5355 18.123 91.7679 17.8883 92.0459 17.7197C92.3285 17.5511 92.6543 17.4668 93.0234 17.4668C93.1237 17.4668 93.2308 17.4759 93.3447 17.4941C93.4632 17.5124 93.5521 17.5329 93.6113 17.5557ZM102.839 22.9971C102.839 22.833 102.798 22.6849 102.716 22.5527C102.634 22.416 102.477 22.293 102.245 22.1836C102.017 22.0742 101.679 21.974 101.233 21.8828C100.841 21.7962 100.481 21.6937 100.153 21.5752C99.8292 21.4521 99.5512 21.304 99.3188 21.1309C99.0864 20.9577 98.9064 20.7526 98.7787 20.5156C98.6511 20.2786 98.5873 20.0052 98.5873 19.6953C98.5873 19.3945 98.6534 19.1097 98.7856 18.8408C98.9177 18.5719 99.1069 18.335 99.353 18.1299C99.5991 17.9248 99.8976 17.763 100.248 17.6445C100.604 17.526 101 17.4668 101.438 17.4668C102.058 17.4668 102.589 17.5716 103.031 17.7812C103.477 17.9863 103.819 18.2666 104.056 18.6221C104.293 18.973 104.412 19.3695 104.412 19.8115H102.764C102.764 19.6156 102.714 19.4333 102.614 19.2646C102.518 19.0915 102.372 18.9525 102.176 18.8477C101.98 18.7383 101.734 18.6836 101.438 18.6836C101.155 18.6836 100.921 18.7292 100.734 18.8203C100.552 18.9069 100.415 19.0208 100.324 19.1621C100.237 19.3034 100.194 19.4583 100.194 19.627C100.194 19.75 100.217 19.8617 100.262 19.9619C100.312 20.0576 100.394 20.1465 100.508 20.2285C100.622 20.306 100.777 20.3789 100.973 20.4473C101.174 20.5156 101.424 20.5817 101.725 20.6455C102.29 20.764 102.775 20.9167 103.181 21.1035C103.591 21.2858 103.906 21.5228 104.124 21.8145C104.343 22.1016 104.453 22.4661 104.453 22.9082C104.453 23.2363 104.382 23.5371 104.241 23.8105C104.104 24.0794 103.903 24.3141 103.639 24.5146C103.375 24.7106 103.058 24.8633 102.689 24.9727C102.324 25.082 101.914 25.1367 101.458 25.1367C100.789 25.1367 100.221 25.0182 99.7563 24.7812C99.2914 24.5397 98.9383 24.2321 98.6967 23.8584C98.4597 23.4801 98.3412 23.0882 98.3412 22.6826H99.934C99.9523 22.988 100.037 23.2318 100.187 23.4141C100.342 23.5918 100.533 23.7217 100.761 23.8037C100.994 23.8812 101.233 23.9199 101.479 23.9199C101.775 23.9199 102.024 23.8812 102.224 23.8037C102.425 23.7217 102.577 23.6123 102.682 23.4756C102.787 23.3343 102.839 23.1748 102.839 22.9971ZM107.939 17.6035V25H106.284V17.6035H107.939ZM106.175 15.6621C106.175 15.4115 106.257 15.2041 106.421 15.04C106.59 14.8714 106.822 14.7871 107.118 14.7871C107.41 14.7871 107.64 14.8714 107.809 15.04C107.977 15.2041 108.062 15.4115 108.062 15.6621C108.062 15.9082 107.977 16.1133 107.809 16.2773C107.64 16.4414 107.41 16.5234 107.118 16.5234C106.822 16.5234 106.59 16.4414 106.421 16.2773C106.257 16.1133 106.175 15.9082 106.175 15.6621ZM114.761 17.6035H116.258V24.7949C116.258 25.4603 116.116 26.0254 115.834 26.4902C115.551 26.9551 115.157 27.3083 114.651 27.5498C114.145 27.7959 113.56 27.9189 112.894 27.9189C112.612 27.9189 112.297 27.8779 111.951 27.7959C111.609 27.7139 111.277 27.5817 110.953 27.3994C110.634 27.2217 110.367 26.987 110.153 26.6953L110.926 25.7246C111.19 26.0391 111.482 26.2692 111.801 26.415C112.12 26.5609 112.455 26.6338 112.806 26.6338C113.184 26.6338 113.505 26.5632 113.769 26.4219C114.038 26.2852 114.246 26.0824 114.391 25.8135C114.537 25.5446 114.61 25.2165 114.61 24.8291V19.2783L114.761 17.6035ZM109.736 21.3838V21.2402C109.736 20.6797 109.805 20.1693 109.941 19.709C110.078 19.2441 110.274 18.8454 110.529 18.5127C110.784 18.1755 111.094 17.918 111.459 17.7402C111.823 17.5579 112.236 17.4668 112.696 17.4668C113.175 17.4668 113.583 17.5534 113.92 17.7266C114.262 17.8997 114.546 18.1481 114.774 18.4717C115.002 18.7907 115.18 19.1735 115.307 19.6201C115.44 20.0622 115.538 20.5544 115.601 21.0967V21.5547C115.542 22.0833 115.442 22.5664 115.301 23.0039C115.159 23.4414 114.973 23.8197 114.74 24.1387C114.508 24.4577 114.221 24.7038 113.879 24.877C113.542 25.0501 113.143 25.1367 112.682 25.1367C112.231 25.1367 111.823 25.0433 111.459 24.8564C111.099 24.6696 110.789 24.4076 110.529 24.0703C110.274 23.7331 110.078 23.3366 109.941 22.8809C109.805 22.4206 109.736 21.9215 109.736 21.3838ZM111.384 21.2402V21.3838C111.384 21.721 111.416 22.0355 111.479 22.3271C111.548 22.6188 111.65 22.8763 111.787 23.0996C111.928 23.3184 112.106 23.4915 112.32 23.6191C112.539 23.7422 112.796 23.8037 113.093 23.8037C113.48 23.8037 113.797 23.7217 114.043 23.5576C114.293 23.3936 114.485 23.1725 114.617 22.8945C114.754 22.612 114.849 22.2975 114.904 21.9512V20.7139C114.877 20.445 114.82 20.1943 114.733 19.9619C114.651 19.7295 114.54 19.5267 114.398 19.3535C114.257 19.1758 114.079 19.0391 113.865 18.9434C113.651 18.8431 113.398 18.793 113.106 18.793C112.81 18.793 112.553 18.8568 112.334 18.9844C112.115 19.112 111.935 19.2874 111.794 19.5107C111.657 19.734 111.555 19.9938 111.486 20.29C111.418 20.5863 111.384 20.903 111.384 21.2402ZM119.88 19.1826V25H118.233V17.6035H119.785L119.88 19.1826ZM119.587 21.0283L119.053 21.0215C119.058 20.4974 119.131 20.0166 119.272 19.5791C119.418 19.1416 119.618 18.7656 119.874 18.4512C120.133 18.1367 120.443 17.8952 120.803 17.7266C121.163 17.5534 121.564 17.4668 122.006 17.4668C122.362 17.4668 122.683 17.5169 122.97 17.6172C123.262 17.7129 123.51 17.8701 123.715 18.0889C123.925 18.3076 124.085 18.5924 124.194 18.9434C124.303 19.2897 124.358 19.7158 124.358 20.2217V25H122.704V20.2148C122.704 19.8594 122.651 19.5791 122.546 19.374C122.446 19.1644 122.298 19.0163 122.102 18.9297C121.911 18.8385 121.671 18.793 121.384 18.793C121.102 18.793 120.849 18.8522 120.626 18.9707C120.402 19.0892 120.213 19.251 120.058 19.4561C119.908 19.6611 119.792 19.8981 119.71 20.167C119.628 20.4359 119.587 20.723 119.587 21.0283ZM130.49 23.5166V19.9893C130.49 19.7249 130.442 19.4971 130.346 19.3057C130.25 19.1143 130.104 18.9661 129.909 18.8613C129.717 18.7565 129.476 18.7041 129.184 18.7041C128.915 18.7041 128.683 18.7497 128.487 18.8408C128.291 18.932 128.138 19.055 128.029 19.21C127.919 19.3649 127.865 19.5404 127.865 19.7363H126.224C126.224 19.4447 126.295 19.1621 126.436 18.8887C126.577 18.6152 126.782 18.3714 127.051 18.1572C127.32 17.943 127.641 17.7744 128.015 17.6514C128.389 17.5283 128.808 17.4668 129.273 17.4668C129.829 17.4668 130.321 17.5602 130.749 17.7471C131.182 17.9339 131.522 18.2165 131.768 18.5947C132.019 18.9684 132.144 19.4378 132.144 20.0029V23.291C132.144 23.6283 132.167 23.9313 132.212 24.2002C132.262 24.4645 132.333 24.6947 132.424 24.8906V25H130.736C130.658 24.8223 130.597 24.5967 130.551 24.3232C130.51 24.0452 130.49 23.7764 130.49 23.5166ZM130.729 20.502L130.743 21.5205H129.56C129.255 21.5205 128.986 21.5501 128.753 21.6094C128.521 21.6641 128.327 21.7461 128.172 21.8555C128.017 21.9648 127.901 22.097 127.824 22.252C127.746 22.4069 127.707 22.5824 127.707 22.7783C127.707 22.9743 127.753 23.1543 127.844 23.3184C127.935 23.4779 128.067 23.6032 128.241 23.6943C128.418 23.7855 128.632 23.8311 128.883 23.8311C129.22 23.8311 129.514 23.7627 129.765 23.626C130.02 23.4847 130.221 23.3138 130.367 23.1133C130.512 22.9082 130.59 22.7145 130.599 22.5322L131.132 23.2637C131.077 23.4505 130.984 23.651 130.852 23.8652C130.72 24.0794 130.547 24.2845 130.332 24.4805C130.123 24.6719 129.87 24.8291 129.574 24.9521C129.282 25.0752 128.945 25.1367 128.562 25.1367C128.079 25.1367 127.648 25.041 127.27 24.8496C126.892 24.6536 126.595 24.3916 126.381 24.0635C126.167 23.7308 126.06 23.3548 126.06 22.9355C126.06 22.5436 126.133 22.1973 126.279 21.8965C126.429 21.5911 126.648 21.3359 126.935 21.1309C127.227 20.9258 127.582 20.7708 128.001 20.666C128.421 20.5566 128.899 20.502 129.437 20.502H130.729ZM137.537 17.6035V18.8066H133.367V17.6035H137.537ZM134.57 15.792H136.218V22.9561C136.218 23.1839 136.25 23.3594 136.314 23.4824C136.382 23.6009 136.475 23.6807 136.594 23.7217C136.712 23.7627 136.851 23.7832 137.011 23.7832C137.125 23.7832 137.234 23.7764 137.339 23.7627C137.444 23.749 137.528 23.7354 137.592 23.7217L137.599 24.9795C137.462 25.0205 137.302 25.057 137.12 25.0889C136.942 25.1208 136.737 25.1367 136.505 25.1367C136.127 25.1367 135.792 25.0706 135.5 24.9385C135.208 24.8018 134.981 24.5807 134.816 24.2754C134.652 23.9701 134.57 23.5645 134.57 23.0586V15.792ZM143.539 23.2568V17.6035H145.193V25H143.635L143.539 23.2568ZM143.771 21.7188L144.325 21.7051C144.325 22.2018 144.27 22.6598 144.161 23.0791C144.052 23.4938 143.883 23.8561 143.655 24.166C143.427 24.4714 143.136 24.7106 142.78 24.8838C142.425 25.0524 141.998 25.1367 141.502 25.1367C141.142 25.1367 140.811 25.0843 140.511 24.9795C140.21 24.8747 139.95 24.7129 139.731 24.4941C139.517 24.2754 139.351 23.9906 139.232 23.6396C139.114 23.2887 139.054 22.8695 139.054 22.3818V17.6035H140.702V22.3955C140.702 22.6644 140.734 22.89 140.798 23.0723C140.861 23.25 140.948 23.3936 141.057 23.5029C141.167 23.6123 141.294 23.6898 141.44 23.7354C141.586 23.7809 141.741 23.8037 141.905 23.8037C142.374 23.8037 142.744 23.7126 143.012 23.5303C143.286 23.3434 143.48 23.0928 143.594 22.7783C143.712 22.4639 143.771 22.1107 143.771 21.7188ZM148.816 19.0117V25H147.168V17.6035H148.741L148.816 19.0117ZM151.079 17.5557L151.065 19.0869C150.965 19.0687 150.855 19.055 150.737 19.0459C150.623 19.0368 150.509 19.0322 150.395 19.0322C150.112 19.0322 149.864 19.0732 149.65 19.1553C149.436 19.2327 149.256 19.3467 149.11 19.4971C148.969 19.6429 148.859 19.8206 148.782 20.0303C148.704 20.2399 148.659 20.4746 148.645 20.7344L148.269 20.7617C148.269 20.2969 148.315 19.8662 148.406 19.4697C148.497 19.0732 148.634 18.7246 148.816 18.4238C149.003 18.123 149.235 17.8883 149.513 17.7197C149.796 17.5511 150.122 17.4668 150.491 17.4668C150.591 17.4668 150.698 17.4759 150.812 17.4941C150.93 17.5124 151.019 17.5329 151.079 17.5557ZM155.515 25.1367C154.968 25.1367 154.474 25.0479 154.031 24.8701C153.594 24.6878 153.22 24.4349 152.91 24.1113C152.605 23.7878 152.37 23.4072 152.206 22.9697C152.042 22.5322 151.96 22.0605 151.96 21.5547V21.2812C151.96 20.7025 152.044 20.1784 152.213 19.709C152.382 19.2396 152.616 18.8385 152.917 18.5059C153.218 18.1686 153.573 17.9111 153.984 17.7334C154.394 17.5557 154.838 17.4668 155.317 17.4668C155.845 17.4668 156.308 17.5557 156.704 17.7334C157.101 17.9111 157.429 18.1618 157.689 18.4854C157.953 18.8044 158.149 19.1849 158.277 19.627C158.409 20.069 158.475 20.5566 158.475 21.0898V21.7939H152.76V20.6113H156.848V20.4814C156.839 20.1852 156.779 19.9072 156.67 19.6475C156.565 19.3877 156.404 19.1781 156.185 19.0186C155.966 18.859 155.674 18.7793 155.31 18.7793C155.036 18.7793 154.793 18.8385 154.578 18.957C154.369 19.071 154.193 19.2373 154.052 19.4561C153.911 19.6748 153.801 19.9391 153.724 20.249C153.651 20.5544 153.614 20.8984 153.614 21.2812V21.5547C153.614 21.8783 153.658 22.179 153.744 22.457C153.835 22.7305 153.968 22.9697 154.141 23.1748C154.314 23.3799 154.524 23.5417 154.77 23.6602C155.016 23.7741 155.296 23.8311 155.611 23.8311C156.007 23.8311 156.36 23.7513 156.67 23.5918C156.98 23.4323 157.249 23.2067 157.477 22.915L158.345 23.7559C158.185 23.9883 157.978 24.2116 157.723 24.4258C157.468 24.6354 157.155 24.8063 156.786 24.9385C156.422 25.0706 155.998 25.1367 155.515 25.1367Z" fill="#0D4582"/>
<path d="M167.75 28.5044H181.248C181.662 28.5044 181.998 28.8402 181.998 29.2544C181.998 29.6341 181.716 29.9479 181.349 29.9976L181.248 30.0044H167.75C167.336 30.0044 167 29.6686 167 29.2544C167 28.8747 167.282 28.5609 167.648 28.5113L167.75 28.5044Z" fill="#005A83"/>
<path d="M174.5 27.001L174.617 26.9943C175.114 26.9365 175.5 26.5138 175.5 26.001V13.416L178.793 16.7042L178.888 16.7873C179.28 17.0921 179.847 17.064 180.208 16.7032C180.598 16.3124 180.597 15.6793 180.207 15.289L175.203 10.2924L175.109 10.2093C174.717 9.90471 174.15 9.93257 173.79 10.2928L168.792 15.2894L168.709 15.3836C168.404 15.7759 168.431 16.3431 168.792 16.7036L168.886 16.7868C169.278 17.0919 169.845 17.0642 170.206 16.7038L173.5 13.411V26.001L173.507 26.1176C173.564 26.615 173.987 27.001 174.5 27.001Z" fill="#005A83"/>
</svg>
