<svg width="20" height="20" viewBox="0 0 20 20" fill="none" xmlns="http://www.w3.org/2000/svg">
<path d="M3.9585 17.0874H15.2066C15.5517 17.0874 15.8316 17.3672 15.8316 17.7124C15.8316 18.0288 15.5964 18.2903 15.2914 18.3316L15.2066 18.3374H3.9585C3.61332 18.3374 3.3335 18.0575 3.3335 17.7124C3.3335 17.3959 3.56862 17.1344 3.87369 17.0931L3.9585 17.0874Z" fill="white"/>
<path d="M9.5835 15.8345L9.68068 15.8289C10.0951 15.7808 10.4168 15.4285 10.4168 15.0012V4.51367L13.1613 7.25383L13.2399 7.3231C13.5669 7.57706 14.0396 7.55363 14.3398 7.25302C14.665 6.92736 14.6647 6.39973 14.339 6.07451L10.1695 1.91067L10.091 1.84143C9.76407 1.58758 9.2917 1.6108 8.99143 1.91101L4.82673 6.07485L4.75739 6.15335C4.50317 6.48023 4.52623 6.95293 4.8266 7.25336L4.9051 7.3227C5.23199 7.57692 5.70468 7.55386 6.00511 7.25349L8.75016 4.5095V15.0012L8.75577 15.0984C8.80391 15.5128 9.15613 15.8345 9.5835 15.8345Z" fill="white"/>
</svg>
