<svg width="60" height="76" viewBox="0 0 60 76" fill="none" xmlns="http://www.w3.org/2000/svg">
<g id="Group">
<path id="Vector" d="M46.8773 0.5H0.624023V75.5H59.3757V12.9984L46.8773 0.5Z" fill="#E8E8E8"/>
<path id="Vector_2" d="M49.3984 37.59C48.4972 35.9838 45.3833 35.4792 43.9547 35.2521C42.8287 35.073 41.6792 35.0196 40.5403 35.0206C39.646 35.0146 38.7649 35.0587 37.8951 35.1081C37.5745 35.1297 37.2572 35.1574 36.94 35.1848C36.615 34.8484 36.3008 34.5009 35.9968 34.1454C34.0624 31.8555 32.5005 29.2586 31.2277 26.56C31.5656 25.2561 31.836 23.8953 31.9993 22.4821C32.2974 19.9027 32.3998 16.9632 31.4333 14.5041C31.0996 13.6554 30.2098 12.6221 29.1832 13.1366C28.003 13.7283 27.671 15.4048 27.5748 16.5932C27.4974 17.5537 27.5516 18.5167 27.7128 19.4612C27.8771 20.4121 28.1415 21.315 28.4295 22.2166C28.6981 23.0434 28.9942 23.8636 29.317 24.6763C29.1122 25.316 28.8948 25.9445 28.6665 26.557C28.1341 27.9529 27.5585 29.2791 27.0049 30.5548C26.713 31.1873 26.4272 31.8065 26.1477 32.4118C25.2631 34.3549 24.3028 36.2624 23.225 38.1063C20.711 38.9931 18.455 40.0212 16.5814 41.2294C15.5763 41.8787 14.6885 42.584 13.9491 43.3575C13.251 44.0877 12.5416 45.0354 12.4795 46.0845C12.4446 46.6767 12.6791 47.2514 13.1642 47.6026C13.8314 48.1011 14.7155 48.0679 15.4895 47.9057C18.025 47.3738 19.9721 45.1942 21.6302 43.3572C22.7723 42.0919 24.0723 40.4853 25.4321 38.5422C25.435 38.5377 25.438 38.5333 25.4412 38.5288C27.7734 37.8057 30.3117 37.1952 33.0056 36.7465C34.2363 36.5424 35.4996 36.3754 36.7881 36.2582C37.6943 37.1069 38.6734 37.8797 39.7415 38.5251C40.5734 39.0369 41.4583 39.4691 42.3844 39.7914C43.321 40.0974 44.2632 40.3472 45.2361 40.5053C45.7274 40.5756 46.2298 40.6075 46.7431 40.5882C47.8887 40.5449 49.533 40.1055 49.6408 38.7156C49.674 38.2901 49.5822 37.9171 49.3984 37.59ZM21.9726 40.1404C21.436 40.9716 20.9185 41.7191 20.431 42.3769C19.2369 44.0016 17.8731 45.9314 15.8986 46.653C15.5236 46.79 15.0299 46.9315 14.5094 46.9008C14.0458 46.8736 13.5887 46.669 13.6097 46.1426C13.6201 45.8671 13.7549 45.5156 13.9617 45.1702C14.1881 44.7915 14.4683 44.4442 14.7719 44.1248C15.4222 43.4416 16.2445 42.7794 17.1904 42.1661C18.6412 41.2249 20.3733 40.3777 22.3041 39.6217C22.193 39.7973 22.0822 39.972 21.9726 40.1404ZM28.7065 19.2969C28.5576 18.4277 28.5351 17.5463 28.6266 16.6988C28.6721 16.275 28.7585 15.8614 28.8834 15.4738C28.9893 15.1448 29.2178 14.3418 29.5825 14.2387C30.1836 14.0685 30.3684 15.359 30.4364 15.7241C30.8238 17.8011 30.4824 20.1108 30.0176 22.1481C29.9436 22.4722 29.8613 22.791 29.7769 23.1087C29.6329 22.7126 29.4956 22.3153 29.3692 21.9161C29.0971 21.0441 28.8483 20.162 28.7065 19.2969ZM32.8334 35.6927C30.5749 36.0588 28.4265 36.5385 26.407 37.1047C26.6501 37.0367 27.7613 34.9308 28.0092 34.4937C29.177 32.4368 30.1324 30.278 30.8188 28.0133C32.0309 30.4106 33.5021 32.7039 35.3094 34.7453C35.4758 34.9305 35.645 35.1136 35.8172 35.2944C34.8045 35.4035 33.8078 35.5364 32.8334 35.6927ZM48.1071 38.5854C48.0245 39.032 47.0709 39.2872 46.6259 39.3575C45.3108 39.5643 43.9196 39.3988 42.661 38.976C41.7974 38.6861 40.9645 38.2913 40.1732 37.8164C39.3865 37.3412 38.6506 36.7821 37.9627 36.1657C38.8109 36.1147 39.6695 36.0813 40.5324 36.0976C41.3952 36.1063 42.2647 36.1498 43.1236 36.2619C44.7342 36.4415 46.539 36.9944 47.8068 38.0395C48.0564 38.2456 48.1361 38.4276 48.1071 38.5854Z" fill="#FB3449"/>
<path id="Vector_3" d="M48.8115 6.74934H0.624023V0.5H46.8773L48.8115 6.74934Z" fill="#FB3449"/>
<g id="Group_2">
<path id="Vector_4" d="M23.8769 60.1538C23.8769 61.4799 23.486 62.5041 22.7039 63.2264C21.9217 63.949 20.811 64.3101 19.3713 64.3101H18.4701V68.2475H15.2637V56.3789H19.3715C20.8706 56.3789 21.9964 56.7064 22.7486 57.3612C23.5009 58.016 23.8769 58.9469 23.8769 60.1538ZM18.4703 61.6962H19.0549C19.5365 61.6962 19.9194 61.5611 20.2037 61.2902C20.4879 61.0196 20.6299 60.6461 20.6299 60.1699C20.6299 59.3689 20.1861 58.9684 19.2985 58.9684H18.4703V61.6962Z" fill="#A4A9AD"/>
<path id="Vector_5" d="M35.8432 62.0615C35.8432 64.0422 35.2978 65.5685 34.2074 66.6401C33.117 67.7117 31.5838 68.2475 29.6085 68.2475H25.7686V56.3789H29.8764C31.7814 56.3789 33.252 56.866 34.2885 57.8401C35.3248 58.8143 35.8432 60.2216 35.8432 62.0615ZM32.5149 62.1753C32.5149 61.0874 32.2996 60.2812 31.8695 59.756C31.4393 59.2311 30.7857 58.9686 29.9088 58.9686H28.9755V65.6172H29.6899C30.6643 65.6172 31.3784 65.3345 31.8331 64.7688C32.2875 64.2035 32.5149 63.3389 32.5149 62.1753Z" fill="#A4A9AD"/>
<path id="Vector_6" d="M41.1282 68.2475H37.9702V56.3789H44.9844V58.9523H41.1282V61.2172H44.6839V63.7906H41.1282V68.2475Z" fill="#A4A9AD"/>
</g>
<path id="Vector_7" d="M46.8772 12.9984H59.3756L46.8772 0.5V12.9984Z" fill="#D1D3D3"/>
</g>
</svg>
